<svg width="379" height="287" viewBox="0 0 379 287" fill="none" xmlns="http://www.w3.org/2000/svg">
<path d="M6.90013 87.3021C6.90013 85.412 5.35557 83.8804 3.45024 83.8804C1.54492 83.8804 6.33614e-08 85.412 4.08212e-08 87.3021C1.82809e-08 89.1923 1.54492 90.7253 3.45024 90.7253C5.35557 90.7253 6.90013 89.1923 6.90013 87.3021Z" fill="#F1B357"/>
<path d="M33.7478 87.3021C33.7478 85.412 32.2032 83.8804 30.2979 83.8804C28.3926 83.8804 26.8477 85.412 26.8477 87.3021C26.8477 89.1923 28.3926 90.7253 30.2979 90.7253C32.2032 90.7253 33.7478 89.1923 33.7478 87.3021Z" fill="#F1B357"/>
<path d="M60.8171 59.3415C60.8171 57.4513 59.2726 55.9197 57.3672 55.9197C55.4619 55.9197 53.917 57.4513 53.917 59.3415C53.917 61.2316 55.4619 62.7646 57.3672 62.7646C59.2726 62.7646 60.8171 61.2316 60.8171 59.3415Z" fill="#F1B357"/>
<path d="M6.90013 59.3415C6.90013 57.4513 5.35557 55.9197 3.45024 55.9197C1.54492 55.9197 6.33614e-08 57.4513 4.08212e-08 59.3415C1.82809e-08 61.2316 1.54492 62.7646 3.45024 62.7646C5.35557 62.7646 6.90013 61.2316 6.90013 59.3415Z" fill="#F1B357"/>
<path d="M33.7478 59.3415C33.7478 57.4513 32.2032 55.9197 30.2979 55.9197C28.3926 55.9197 26.8477 57.4513 26.8477 59.3415C26.8477 61.2316 28.3926 62.7646 30.2979 62.7646C32.2032 62.7646 33.7478 61.2316 33.7478 59.3415Z" fill="#F1B357"/>
<path d="M60.8171 31.7897C60.8171 29.8995 59.2726 28.368 57.3672 28.368C55.4619 28.3679 53.917 29.8995 53.917 31.7897C53.917 33.6799 55.4619 35.2129 57.3672 35.2129C59.2726 35.2129 60.8171 33.6799 60.8171 31.7897Z" fill="#F1B357"/>
<path d="M87.969 31.7897C87.969 29.8995 86.4244 28.368 84.5191 28.368C82.6138 28.3679 81.0688 29.8995 81.0688 31.7897C81.0688 33.6799 82.6138 35.2129 84.5191 35.2129C86.4244 35.2129 87.969 33.6799 87.969 31.7897Z" fill="#F1B357"/>
<path d="M6.90013 31.7897C6.90013 29.8995 5.35557 28.368 3.45024 28.368C1.54492 28.3679 6.33614e-08 29.8995 4.08212e-08 31.7897C1.82809e-08 33.6799 1.54492 35.2129 3.45024 35.2129C5.35557 35.2129 6.90013 33.6799 6.90013 31.7897Z" fill="#F1B357"/>
<path d="M33.7478 31.7897C33.7478 29.8995 32.2032 28.368 30.2979 28.368C28.3926 28.3679 26.8477 29.8995 26.8477 31.7897C26.8477 33.6799 28.3926 35.2129 30.2979 35.2129C32.2032 35.2129 33.7478 33.6799 33.7478 31.7897Z" fill="#F1B357"/>
<path d="M60.8171 3.42153C60.8171 1.53135 59.2726 -0.000214036 57.3672 -0.000214059C55.4619 -0.000214081 53.917 1.53135 53.917 3.42153C53.917 5.31172 55.4619 6.84473 57.3672 6.84473C59.2726 6.84473 60.8171 5.31172 60.8171 3.42153Z" fill="#F1B357"/>
<path d="M87.969 3.42153C87.969 1.53135 86.4244 -0.000214036 84.5191 -0.000214059C82.6138 -0.000214081 81.0688 1.53135 81.0688 3.42153C81.0688 5.31172 82.6138 6.84473 84.5191 6.84473C86.4244 6.84473 87.969 5.31172 87.969 3.42153Z" fill="#F1B357"/>
<path d="M34.1545 3.42153C34.1545 1.53135 32.61 -0.000214036 30.7046 -0.000214059C28.7993 -0.000214081 27.2544 1.53135 27.2544 3.42153C27.2544 5.31172 28.7993 6.84473 30.7046 6.84473C32.61 6.84473 34.1545 5.31172 34.1545 3.42153Z" fill="#F1B357"/>
<g filter="url(#filter0_d_716_632)">
<rect x="44" y="20" width="289" height="176" rx="10" fill="white"/>
<rect x="44.5" y="20.5" width="288" height="175" rx="9.5" stroke="#ECECEC"/>
</g>
<circle cx="90.935" cy="69.935" r="33.935" fill="#F0F0F0"/>
<mask id="mask0_716_632" style="mask-type:alpha" maskUnits="userSpaceOnUse" x="57" y="36" width="68" height="68">
<path d="M124.369 69.9343C124.369 88.3995 109.4 103.369 90.9343 103.369C72.469 103.369 57.5 88.3995 57.5 69.9343C57.5 51.469 72.469 36.5 90.9343 36.5C109.4 36.5 124.369 51.469 124.369 69.9343Z" fill="#FDBF64" stroke="black"/>
</mask>
<g mask="url(#mask0_716_632)">
<path d="M115 106.973V98.3065C115 93.7094 113.736 89.3006 111.485 86.05C109.235 82.7993 106.183 80.9731 103 80.9731H79C75.8174 80.9731 72.7652 82.7993 70.5147 86.05C68.2643 89.3006 67 93.7094 67 98.3065V106.973" fill="#F1B357"/>
<path fill-rule="evenodd" clip-rule="evenodd" d="M69.6968 86.285C72.0877 82.9652 75.43 80.9731 79.0409 80.9731H102.959C106.57 80.9731 109.912 82.9652 112.303 86.285C114.692 89.6014 116 94.0421 116 98.6245V106.927C116 107.505 115.516 107.973 114.918 107.973H67.0818C66.4843 107.973 66 107.505 66 106.927V98.6245C66 94.0421 67.3083 89.6014 69.6968 86.285ZM79.0409 83.0653C76.3083 83.0653 73.5669 84.5722 71.4722 87.4806C69.3752 90.3923 68.1635 94.3989 68.1635 98.6245V105.881H113.836V98.6245C113.836 94.3989 112.625 90.3923 110.528 87.4806C108.433 84.5722 105.692 83.0653 102.959 83.0653H79.0409Z" fill="#F1B357"/>
<path d="M90.5 73.9731C97.4036 73.9731 103 68.6006 103 61.9731C103 55.3457 97.4036 49.9731 90.5 49.9731C83.5964 49.9731 78 55.3457 78 61.9731C78 68.6006 83.5964 73.9731 90.5 73.9731Z" fill="#F1B357"/>
<path fill-rule="evenodd" clip-rule="evenodd" d="M90.5 51.1299C84.3388 51.1299 79.2936 55.958 79.2936 61.9731C79.2936 67.9883 84.3388 72.8164 90.5 72.8164C96.6612 72.8164 101.706 67.9883 101.706 61.9731C101.706 55.958 96.6612 51.1299 90.5 51.1299ZM77 61.9731C77 54.82 83.0163 48.9731 90.5 48.9731C97.9837 48.9731 104 54.82 104 61.9731C104 69.1263 97.9837 74.9731 90.5 74.9731C83.0163 74.9731 77 69.1263 77 61.9731Z" fill="#F1B357"/>
</g>
<rect width="126" height="15" rx="2" transform="matrix(-1 0 0 1 264 76)" fill="#4B7CCB"/>
<rect width="219" height="15" rx="2" transform="matrix(-1 0 0 1 357 49)" fill="#F0F0F0"/>
<rect width="46" height="9" rx="2" transform="matrix(-1 0 0 1 101 133)" fill="#F0F0F0"/>
<rect width="68" height="9" rx="2" transform="matrix(-1 0 0 1 123 157)" fill="#F0F0F0"/>
<rect width="30" height="9" rx="2" transform="matrix(-1 0 0 1 161 157)" fill="#F0F0F0"/>
<rect width="190" height="9" rx="2" transform="matrix(-1 0 0 1 305 133)" fill="#F0F0F0"/>
<rect width="133" height="9" rx="2" transform="matrix(-1 0 0 1 302 157)" fill="#F0F0F0"/>
<g filter="url(#filter1_d_716_632)">
<circle cx="293" cy="201" r="79" fill="white"/>
<circle cx="293" cy="201" r="78.5" stroke="#ECECEC"/>
</g>
<circle cx="292.5" cy="201.5" r="53.5" stroke="#F1B357" stroke-width="2"/>
<path d="M268.016 181.085C281.12 180.035 290.372 174.591 293.36 172V231C272.288 222.681 267.684 202.43 268.016 193.345V181.085Z" fill="#4B7CCB" stroke="#4B7CCB" stroke-width="2" stroke-linecap="round" stroke-linejoin="round"/>
<path d="M318.186 181.085C305.35 180.035 296.287 174.591 293.36 172V231C314.001 222.681 318.511 202.43 318.186 193.345V181.085Z" fill="#4678C9" stroke="#4B7CCB" stroke-width="2" stroke-linecap="round" stroke-linejoin="round"/>
<path d="M282 204.5L287.5 210L304.5 193" stroke="white" stroke-width="4" stroke-linecap="round" stroke-linejoin="round"/>
<defs>
<filter id="filter0_d_716_632" x="38" y="14" width="309" height="196" filterUnits="userSpaceOnUse" color-interpolation-filters="sRGB">
<feFlood flood-opacity="0" result="BackgroundImageFix"/>
<feColorMatrix in="SourceAlpha" type="matrix" values="0 0 0 0 0 0 0 0 0 0 0 0 0 0 0 0 0 0 127 0" result="hardAlpha"/>
<feOffset dx="4" dy="4"/>
<feGaussianBlur stdDeviation="5"/>
<feComposite in2="hardAlpha" operator="out"/>
<feColorMatrix type="matrix" values="0 0 0 0 0.690576 0 0 0 0 0.690576 0 0 0 0 0.690576 0 0 0 0.15 0"/>
<feBlend mode="normal" in2="BackgroundImageFix" result="effect1_dropShadow_716_632"/>
<feBlend mode="normal" in="SourceGraphic" in2="effect1_dropShadow_716_632" result="shape"/>
</filter>
<filter id="filter1_d_716_632" x="213" y="121" width="166" height="166" filterUnits="userSpaceOnUse" color-interpolation-filters="sRGB">
<feFlood flood-opacity="0" result="BackgroundImageFix"/>
<feColorMatrix in="SourceAlpha" type="matrix" values="0 0 0 0 0 0 0 0 0 0 0 0 0 0 0 0 0 0 127 0" result="hardAlpha"/>
<feOffset dx="3" dy="3"/>
<feGaussianBlur stdDeviation="2"/>
<feComposite in2="hardAlpha" operator="out"/>
<feColorMatrix type="matrix" values="0 0 0 0 0.690196 0 0 0 0 0.690196 0 0 0 0 0.690196 0 0 0 0.08 0"/>
<feBlend mode="normal" in2="BackgroundImageFix" result="effect1_dropShadow_716_632"/>
<feBlend mode="normal" in="SourceGraphic" in2="effect1_dropShadow_716_632" result="shape"/>
</filter>
</defs>
</svg>
