<svg width="268" height="332" viewBox="0 0 268 332" fill="none" xmlns="http://www.w3.org/2000/svg">
<path d="M87.3024 324.34C85.4122 324.34 83.8806 325.885 83.8806 327.79C83.8806 329.695 85.4122 331.24 87.3024 331.24C89.1926 331.24 90.7256 329.695 90.7256 327.79C90.7256 325.885 89.1926 324.34 87.3024 324.34Z" fill="#F1B357"/>
<path d="M87.3024 297.493C85.4122 297.493 83.8806 299.037 83.8806 300.943C83.8806 302.848 85.4122 304.393 87.3024 304.393C89.1926 304.393 90.7256 302.848 90.7256 300.943C90.7256 299.037 89.1926 297.493 87.3024 297.493Z" fill="#F1B357"/>
<path d="M59.3419 270.423C57.4518 270.423 55.9202 271.968 55.9202 273.873C55.9202 275.778 57.4518 277.323 59.3419 277.323C61.2321 277.323 62.7651 275.778 62.7651 273.873C62.7651 271.968 61.2321 270.423 59.3419 270.423Z" fill="#F1B357"/>
<path d="M59.3419 324.34C57.4518 324.34 55.9202 325.885 55.9202 327.79C55.9202 329.695 57.4518 331.24 59.3419 331.24C61.2321 331.24 62.7651 329.695 62.7651 327.79C62.7651 325.885 61.2321 324.34 59.3419 324.34Z" fill="#F1B357"/>
<path d="M59.3419 297.493C57.4518 297.493 55.9202 299.037 55.9202 300.943C55.9202 302.848 57.4518 304.393 59.3419 304.393C61.2321 304.393 62.7651 302.848 62.7651 300.943C62.7651 299.037 61.2321 297.493 59.3419 297.493Z" fill="#F1B357"/>
<path d="M31.7902 270.423C29.9 270.423 28.3684 271.968 28.3684 273.873C28.3684 275.778 29.9 277.323 31.7902 277.323C33.6804 277.323 35.2134 275.778 35.2134 273.873C35.2134 271.968 33.6804 270.423 31.7902 270.423Z" fill="#F1B357"/>
<path d="M31.7902 243.271C29.9 243.271 28.3684 244.816 28.3684 246.721C28.3684 248.626 29.9 250.171 31.7902 250.171C33.6804 250.171 35.2134 248.626 35.2134 246.721C35.2134 244.816 33.6804 243.271 31.7902 243.271Z" fill="#F1B357"/>
<path d="M31.7902 324.34C29.9 324.34 28.3684 325.885 28.3684 327.79C28.3684 329.695 29.9 331.24 31.7902 331.24C33.6804 331.24 35.2134 329.695 35.2134 327.79C35.2134 325.885 33.6804 324.34 31.7902 324.34Z" fill="#F1B357"/>
<path d="M31.7902 297.493C29.9 297.493 28.3684 299.037 28.3684 300.943C28.3684 302.848 29.9 304.393 31.7902 304.393C33.6804 304.393 35.2134 302.848 35.2134 300.943C35.2134 299.037 33.6804 297.493 31.7902 297.493Z" fill="#F1B357"/>
<path d="M3.42202 270.423C1.53184 270.423 0.00027465 271.968 0.000274483 273.873C0.000274316 275.778 1.53183 277.323 3.42202 277.323C5.31221 277.323 6.84521 275.778 6.84522 273.873C6.84522 271.968 5.31221 270.423 3.42202 270.423Z" fill="#F1B357"/>
<path d="M3.42202 243.271C1.53184 243.271 0.00027465 244.816 0.000274483 246.721C0.000274316 248.626 1.53183 250.171 3.42202 250.171C5.31221 250.171 6.84521 248.626 6.84522 246.721C6.84522 244.816 5.31221 243.271 3.42202 243.271Z" fill="#F1B357"/>
<path d="M3.42202 297.086C1.53184 297.086 0.00027465 298.63 0.000274483 300.535C0.000274316 302.441 1.53183 303.986 3.42202 303.986C5.31221 303.986 6.84521 302.441 6.84522 300.535C6.84522 298.63 5.31221 297.086 3.42202 297.086Z" fill="#F1B357"/>
<g filter="url(#filter0_d_716_548)">
<rect x="20" y="22.2711" width="209" height="265" rx="10" fill="white"/>
<rect x="20.5" y="22.7711" width="208" height="264" rx="9.5" stroke="#ECECEC"/>
</g>
<mask id="mask0_716_548" style="mask-type:alpha" maskUnits="userSpaceOnUse" x="45" y="41" width="69" height="70">
<rect x="45" y="41.2711" width="69" height="69" rx="10" fill="#D9D9D9"/>
</mask>
<g mask="url(#mask0_716_548)">
<path d="M42.6748 45.015L45.9532 40.9008L54.5591 61.015L43.4944 66.0435L42.6748 45.015Z" fill="#4B7CCB" stroke="#4B7CCB" stroke-width="3"/>
<path d="M44.7236 103.755V72.9007L57.0177 67.415L68.0825 93.4721L44.7236 103.755Z" fill="#4CAF52" stroke="#4CAF52" stroke-width="3"/>
<path d="M69.7218 100.329L48.8218 109.015L52.51 112.215H75.459L69.7218 100.329Z" fill="#ECECEC" stroke="#ECECEC" stroke-width="3"/>
<path d="M96.7688 88.4434L75.459 97.5862L81.606 112.215H107.014L96.7688 88.4434Z" fill="#388E3D" stroke="#388E3D" stroke-width="3"/>
<path d="M84.4746 56.9008L62.3452 65.1293L73.4099 91.1863L94.7197 81.5864L84.4746 56.9008Z" fill="#ECECEC" stroke="#ECECEC" stroke-width="3"/>
<path d="M60.2963 58.7293L51.6904 39.9866H113L60.2963 58.7293Z" fill="#ECECEC" stroke="#ECECEC" stroke-width="3"/>
<path d="M89.8022 54.1578L113.981 45.4722V88.4434L100.457 81.5863L89.8022 54.1578Z" fill="#4B7CCB" stroke="#4B7CCB" stroke-width="3"/>
<path d="M112.342 110.386L104.146 90.7291L114.391 95.3005V106.272L112.342 110.386Z" fill="#ECECEC" stroke="#ECECEC" stroke-width="3"/>
</g>
<g filter="url(#filter1_d_716_548)">
<rect x="174" y="54.2711" width="86" height="43" rx="21.5" fill="#F0F0F0"/>
<ellipse cx="195" cy="75.7711" rx="17" ry="17.5" fill="white"/>
</g>
<rect width="113" height="15" rx="2" transform="matrix(-1 0 0 1 158 234)" fill="#4B7CCB"/>
<rect width="206" height="17" transform="matrix(-1 0 0 1 251 191.271)" fill="#F0F0F0"/>
<rect width="221" height="30" rx="2" transform="matrix(-1 0 0 1 266 184)" fill="#F0F0F0"/>
<rect width="196" height="15" rx="2" transform="matrix(-1 0 0 1 241 150)" fill="#F0F0F0"/>
<path d="M85.1052 20.3041C86.38 36.0963 70.2401 51.0235 70.2401 51.0235C70.2401 51.0235 51.9148 38.8784 50.64 23.0863C50.2053 17.7013 51.604 12.3903 54.5283 8.32162C57.4527 4.25297 61.6632 1.75996 66.2336 1.39103C70.8039 1.02209 75.3598 2.80745 78.8989 6.35434C82.438 9.90124 84.6705 14.9191 85.1052 20.3041Z" fill="#F1B357"/>
<path d="M68.8732 28.1211C72.8387 27.801 75.7939 24.3268 75.4738 20.3612C75.1537 16.3957 71.6795 13.4405 67.7139 13.7606C63.7484 14.0807 60.7932 17.5549 61.1133 21.5205C61.4334 25.486 64.9076 28.4412 68.8732 28.1211Z" fill="white"/>
<path d="M183 110.5H250.5" stroke="#DCDCDC" stroke-width="2" stroke-linejoin="round" stroke-dasharray="4 6"/>
<defs>
<filter id="filter0_d_716_548" x="14" y="16.2711" width="229" height="285" filterUnits="userSpaceOnUse" color-interpolation-filters="sRGB">
<feFlood flood-opacity="0" result="BackgroundImageFix"/>
<feColorMatrix in="SourceAlpha" type="matrix" values="0 0 0 0 0 0 0 0 0 0 0 0 0 0 0 0 0 0 127 0" result="hardAlpha"/>
<feOffset dx="4" dy="4"/>
<feGaussianBlur stdDeviation="5"/>
<feComposite in2="hardAlpha" operator="out"/>
<feColorMatrix type="matrix" values="0 0 0 0 0.690576 0 0 0 0 0.690576 0 0 0 0 0.690576 0 0 0 0.15 0"/>
<feBlend mode="normal" in2="BackgroundImageFix" result="effect1_dropShadow_716_548"/>
<feBlend mode="normal" in="SourceGraphic" in2="effect1_dropShadow_716_548" result="shape"/>
</filter>
<filter id="filter1_d_716_548" x="174" y="54.2711" width="94" height="51" filterUnits="userSpaceOnUse" color-interpolation-filters="sRGB">
<feFlood flood-opacity="0" result="BackgroundImageFix"/>
<feColorMatrix in="SourceAlpha" type="matrix" values="0 0 0 0 0 0 0 0 0 0 0 0 0 0 0 0 0 0 127 0" result="hardAlpha"/>
<feOffset dx="4" dy="4"/>
<feGaussianBlur stdDeviation="2"/>
<feComposite in2="hardAlpha" operator="out"/>
<feColorMatrix type="matrix" values="0 0 0 0 0.884897 0 0 0 0 0.884897 0 0 0 0 0.884897 0 0 0 0.05 0"/>
<feBlend mode="normal" in2="BackgroundImageFix" result="effect1_dropShadow_716_548"/>
<feBlend mode="normal" in="SourceGraphic" in2="effect1_dropShadow_716_548" result="shape"/>
</filter>
</defs>
</svg>
