<svg width="314" height="214" viewBox="0 0 314 214" fill="none" xmlns="http://www.w3.org/2000/svg">
<path d="M6.90013 210.302C6.90013 208.412 5.35557 206.881 3.45025 206.881C1.54492 206.881 -2.32255e-07 208.412 -1.49633e-07 210.302C-6.70098e-08 212.192 1.54492 213.725 3.45025 213.725C5.35557 213.725 6.90013 212.192 6.90013 210.302Z" fill="#F1B357"/>
<path d="M33.7475 210.302C33.7475 208.412 32.203 206.881 30.2977 206.881C28.3923 206.881 26.8474 208.412 26.8474 210.302C26.8474 212.192 28.3923 213.725 30.2977 213.725C32.203 213.725 33.7475 212.192 33.7475 210.302Z" fill="#F1B357"/>
<path d="M60.8171 182.342C60.8171 180.451 59.2726 178.92 57.3672 178.92C55.4619 178.92 53.917 180.451 53.917 182.342C53.917 184.232 55.4619 185.765 57.3672 185.765C59.2726 185.765 60.8171 184.232 60.8171 182.342Z" fill="#F1B357"/>
<path d="M6.90013 182.342C6.90013 180.451 5.35557 178.92 3.45025 178.92C1.54492 178.92 -2.32255e-07 180.451 -1.49633e-07 182.342C-6.70098e-08 184.232 1.54492 185.765 3.45025 185.765C5.35557 185.765 6.90013 184.232 6.90013 182.342Z" fill="#F1B357"/>
<path d="M33.7475 182.342C33.7475 180.451 32.203 178.92 30.2977 178.92C28.3923 178.92 26.8474 180.451 26.8474 182.342C26.8474 184.232 28.3923 185.765 30.2977 185.765C32.203 185.765 33.7475 184.232 33.7475 182.342Z" fill="#F1B357"/>
<path d="M60.8171 154.79C60.8171 152.9 59.2726 151.368 57.3672 151.368C55.4619 151.368 53.917 152.9 53.917 154.79C53.917 156.68 55.4619 158.213 57.3672 158.213C59.2726 158.213 60.8171 156.68 60.8171 154.79Z" fill="#F1B357"/>
<path d="M87.969 154.79C87.969 152.9 86.4244 151.368 84.5191 151.368C82.6138 151.368 81.0688 152.9 81.0688 154.79C81.0688 156.68 82.6138 158.213 84.5191 158.213C86.4244 158.213 87.969 156.68 87.969 154.79Z" fill="#F1B357"/>
<path d="M6.90013 154.79C6.90013 152.9 5.35557 151.368 3.45025 151.368C1.54492 151.368 -2.32255e-07 152.9 -1.49633e-07 154.79C-6.70098e-08 156.68 1.54492 158.213 3.45025 158.213C5.35557 158.213 6.90013 156.68 6.90013 154.79Z" fill="#F1B357"/>
<path d="M33.7475 154.79C33.7475 152.9 32.203 151.368 30.2977 151.368C28.3923 151.368 26.8474 152.9 26.8474 154.79C26.8474 156.68 28.3923 158.213 30.2977 158.213C32.203 158.213 33.7475 156.68 33.7475 154.79Z" fill="#F1B357"/>
<path d="M60.8171 126.422C60.8171 124.532 59.2726 123 57.3672 123C55.4619 123 53.917 124.532 53.917 126.422C53.917 128.312 55.4619 129.845 57.3672 129.845C59.2726 129.845 60.8171 128.312 60.8171 126.422Z" fill="#F1B357"/>
<path d="M87.969 126.422C87.969 124.532 86.4244 123 84.5191 123C82.6138 123 81.0688 124.532 81.0688 126.422C81.0688 128.312 82.6138 129.845 84.5191 129.845C86.4244 129.845 87.969 128.312 87.969 126.422Z" fill="#F1B357"/>
<path d="M34.1548 126.422C34.1548 124.532 32.6102 123 30.7049 123C28.7996 123 27.2546 124.532 27.2546 126.422C27.2546 128.312 28.7996 129.845 30.7049 129.845C32.6102 129.845 34.1548 128.312 34.1548 126.422Z" fill="#F1B357"/>
<g filter="url(#filter0_d_736_630)">
<path d="M12 37C12 31.4771 16.4772 27 22 27H239C244.523 27 249 31.4772 249 37V161C249 166.523 244.523 171 239 171H22C16.4771 171 12 166.523 12 161V37Z" fill="white"/>
</g>
<g filter="url(#filter1_d_736_630)">
<path d="M239 170V171H22V170H239ZM248 161V37C248 32.0294 243.971 28 239 28H22C17.0294 28 13 32.0294 13 37V161C13 165.971 17.0294 170 22 170V171L21.4854 170.987C16.3721 170.728 12.2719 166.628 12.0127 161.515L12 161V37C12 31.6498 16.2017 27.2805 21.4854 27.0127L22 27H239L239.515 27.0127C244.798 27.2805 249 31.6498 249 37V161L248.987 161.515C248.728 166.628 244.628 170.728 239.515 170.987L239 171V170C243.971 170 248 165.971 248 161Z" fill="#ECECEC"/>
</g>
<path d="M42 92C43.1046 92 44 91.1046 44 90L44 65C44 63.8954 43.1046 63 42 63L36 63C34.8954 63 34 63.8954 34 65L34 90C34 91.1046 34.8954 92 36 92L42 92Z" fill="#4B7CCB"/>
<path d="M62 84C63.1046 84 64 83.1046 64 82L64 56C64 54.8954 63.1046 54 62 54L56 54C54.8954 54 54 54.8954 54 56L54 82C54 83.1046 54.8954 84 56 84L62 84Z" fill="#F1B357"/>
<path d="M83 98C84.1046 98 85 97.1046 85 96L85 71C85 69.8954 84.1046 69 83 69L77 69C75.8954 69 75 69.8954 75 71L75 96C75 97.1046 75.8954 98 77 98L83 98Z" fill="#4B7CCB"/>
<path d="M76 71L75 71L75 96L76 96L76 71ZM77 70L83 70C83.5523 70 84 70.4477 84 71L84 96C84 96.5177 83.6067 96.9438 83.1025 96.9951L83 97L77 97C76.4477 97 76 96.5523 76 96L75 96L75.0107 96.2041C75.1062 97.1457 75.8543 97.8938 76.7959 97.9893L77 98L83 98C84.0357 98 84.887 97.2128 84.9893 96.2041L85 96L85 71L84.9893 70.7959C84.887 69.7872 84.0356 69 83 69L77 69L76.7959 69.0107C75.8543 69.1062 75.1062 69.8543 75.0107 70.7959L75 71L76 71C76 70.4477 76.4477 70 77 70Z" fill="#4B7CCB"/>
<path d="M39.5 58V96H38.5V58H39.5Z" fill="#4B7CCB"/>
<path d="M59.5 50V88H58.5V50H59.5Z" fill="#F1B357"/>
<path d="M80.5 65V103H79.5V65H80.5Z" fill="#4B7CCB"/>
<path d="M69 126C69 124.895 68.1046 124 67 124H36C34.8954 124 34 124.895 34 126V137C34 138.105 34.8954 139 36 139H67C68.1046 139 69 138.105 69 137V126Z" fill="#F0F0F0"/>
<path d="M131 126C131 124.895 130.105 124 129 124H80C78.8954 124 78 124.895 78 126V137C78 138.105 78.8954 139 80 139H129C130.105 139 131 138.105 131 137V126Z" fill="#F0F0F0"/>
<path d="M237 126C237 124.895 236.105 124 235 124H143C141.895 124 141 124.895 141 126V137C141 138.105 141.895 139 143 139H235C236.105 139 237 138.105 237 137V126Z" fill="#F0F0F0"/>
<path d="M238 39.5C238 61.3152 220.315 79 198.5 79C176.685 79 159 61.3152 159 39.5C159 17.6848 176.685 0 198.5 0C220.315 0 238 17.6848 238 39.5Z" fill="#F0F0F0"/>
<g filter="url(#filter2_d_736_630)">
<path d="M300 131.5C300 153.315 282.315 171 260.5 171C238.685 171 221 153.315 221 131.5C221 109.685 238.685 92 260.5 92C282.315 92 300 109.685 300 131.5Z" fill="white"/>
</g>
<g filter="url(#filter3_d_736_630)">
<path d="M299 131.5C299 110.237 281.763 93 260.5 93C239.237 93 222 110.237 222 131.5C222 152.763 239.237 170 260.5 170V171C238.685 171 221 153.315 221 131.5C221 109.685 238.685 92 260.5 92C282.315 92 300 109.685 300 131.5C300 153.315 282.315 171 260.5 171V170C281.763 170 299 152.763 299 131.5Z" fill="#ECECEC"/>
</g>
<path d="M213.4 30H184.6C182.612 30 181 31.599 181 33.5714V51.4286C181 53.401 182.612 55 184.6 55H213.4C215.388 55 217 53.401 217 51.4286V33.5714C217 31.599 215.388 30 213.4 30Z" fill="#4B7CCB"/>
<path d="M205.5 53V24.5557C205.5 24.037 205.283 23.5223 204.869 23.1299C204.505 22.7845 204.015 22.5612 203.481 22.5107L203.25 22.5H195.75C195.128 22.5 194.547 22.735 194.131 23.1299C193.717 23.5223 193.5 24.037 193.5 24.5557V53C193.5 53.8284 192.828 54.5 192 54.5C191.172 54.5 190.5 53.8284 190.5 53V24.5557C190.5 23.1883 191.074 21.8943 192.066 20.9531C193.056 20.0145 194.383 19.5 195.75 19.5H203.25L203.506 19.5059C204.782 19.5658 206.006 20.0732 206.934 20.9531C207.926 21.8943 208.5 23.1883 208.5 24.5557V53C208.5 53.8284 207.828 54.5 207 54.5C206.172 54.5 205.5 53.8284 205.5 53Z" fill="#4B7CCB"/>
<path d="M199.565 52L195 43.2185V42.0476H195.531C196.385 42.0476 197.101 41.9589 197.681 41.7815C198.277 41.6041 198.744 41.3114 199.082 40.9034C199.42 40.4953 199.622 39.9365 199.686 39.2269H195V37.5238H199.662C199.549 36.8674 199.324 36.3352 198.986 35.9272C198.647 35.5014 198.188 35.1909 197.609 34.9958C197.045 34.8007 196.353 34.7031 195.531 34.7031H195V33H205V34.7031H200.435C200.805 35.0401 201.111 35.4393 201.353 35.9006C201.594 36.3618 201.747 36.9029 201.812 37.5238H205V39.2269H201.86C201.747 40.5219 201.296 41.5331 200.507 42.2605C199.734 42.9701 198.704 43.4225 197.415 43.6176L202.029 52H199.565Z" fill="white"/>
<path d="M221.035 20.0859L178.035 61.0859L175.965 58.9141L218.965 17.9141L221.035 20.0859Z" fill="#FCB94A"/>
<g clip-path="url(#clip0_736_630)">
<path d="M250.994 122.994L242.825 124.446C241.2 124.735 240.117 126.287 240.406 127.912L240.639 129.22L239.75 129.379C239.202 129.476 238.845 129.998 238.941 130.537L239.597 134.224C239.694 134.771 240.216 135.128 240.755 135.032L241.645 134.874L241.845 136.003C242.135 137.628 243.686 138.711 245.311 138.422L246.047 138.291L251.397 148.881L251.881 148.671L253.511 147.966L253.995 147.757L250.785 137.448L253.479 136.969L253.262 135.746C256.94 135.692 263.111 136.156 267.929 139.332C268.101 140.051 268.843 140.502 269.589 140.281C270.233 140.087 270.604 139.394 270.486 138.727L269.14 131.158C270.689 130.247 271.585 128.437 271.254 126.573C270.92 124.7 269.457 123.319 267.688 122.998L266.353 115.489C266.234 114.821 265.656 114.298 264.975 114.339C264.198 114.389 263.666 115.066 263.744 115.803C260.317 120.444 254.684 123.008 251.213 124.225L250.994 122.994Z" fill="#4B7CCB"/>
<path d="M277.834 118.528C278.054 118.451 278.304 118.536 278.429 118.743C278.553 118.95 278.51 119.211 278.339 119.368L278.257 119.429L273.257 122.429C273.02 122.571 272.713 122.493 272.571 122.257C272.43 122.02 272.507 121.713 272.743 121.571L277.743 118.571L277.834 118.528Z" fill="#4B7CCB"/>
<path d="M274.132 129.018L279.632 130.518L279.727 130.554C279.934 130.659 280.046 130.899 279.982 131.132C279.919 131.365 279.701 131.514 279.469 131.499L279.368 131.482L273.868 129.982L273.774 129.946C273.566 129.841 273.454 129.601 273.518 129.368C273.581 129.135 273.799 128.986 274.031 129.001L274.132 129.018ZM279.979 124C280.211 123.99 280.427 124.144 280.485 124.379C280.544 124.613 280.427 124.851 280.217 124.951L280.121 124.985L274.121 126.485C273.853 126.552 273.582 126.389 273.515 126.121C273.448 125.853 273.611 125.582 273.879 125.515L279.879 124.015L279.979 124Z" fill="#4B7CCB"/>
</g>
<path d="M282.035 112.086L239.035 153.086L236.965 150.914L279.965 109.914L282.035 112.086Z" fill="#FCB94A"/>
<defs>
<filter id="filter0_d_736_630" x="6" y="21" width="257" height="164" filterUnits="userSpaceOnUse" color-interpolation-filters="sRGB">
<feFlood flood-opacity="0" result="BackgroundImageFix"/>
<feColorMatrix in="SourceAlpha" type="matrix" values="0 0 0 0 0 0 0 0 0 0 0 0 0 0 0 0 0 0 127 0" result="hardAlpha"/>
<feOffset dx="4" dy="4"/>
<feGaussianBlur stdDeviation="5"/>
<feComposite in2="hardAlpha" operator="out"/>
<feColorMatrix type="matrix" values="0 0 0 0 0.690576 0 0 0 0 0.690576 0 0 0 0 0.690576 0 0 0 0.15 0"/>
<feBlend mode="normal" in2="BackgroundImageFix" result="effect1_dropShadow_736_630"/>
<feBlend mode="normal" in="SourceGraphic" in2="effect1_dropShadow_736_630" result="shape"/>
</filter>
<filter id="filter1_d_736_630" x="6" y="21" width="257" height="164" filterUnits="userSpaceOnUse" color-interpolation-filters="sRGB">
<feFlood flood-opacity="0" result="BackgroundImageFix"/>
<feColorMatrix in="SourceAlpha" type="matrix" values="0 0 0 0 0 0 0 0 0 0 0 0 0 0 0 0 0 0 127 0" result="hardAlpha"/>
<feOffset dx="4" dy="4"/>
<feGaussianBlur stdDeviation="5"/>
<feComposite in2="hardAlpha" operator="out"/>
<feColorMatrix type="matrix" values="0 0 0 0 0.690576 0 0 0 0 0.690576 0 0 0 0 0.690576 0 0 0 0.15 0"/>
<feBlend mode="normal" in2="BackgroundImageFix" result="effect1_dropShadow_736_630"/>
<feBlend mode="normal" in="SourceGraphic" in2="effect1_dropShadow_736_630" result="shape"/>
</filter>
<filter id="filter2_d_736_630" x="215" y="86" width="99" height="99" filterUnits="userSpaceOnUse" color-interpolation-filters="sRGB">
<feFlood flood-opacity="0" result="BackgroundImageFix"/>
<feColorMatrix in="SourceAlpha" type="matrix" values="0 0 0 0 0 0 0 0 0 0 0 0 0 0 0 0 0 0 127 0" result="hardAlpha"/>
<feOffset dx="4" dy="4"/>
<feGaussianBlur stdDeviation="5"/>
<feComposite in2="hardAlpha" operator="out"/>
<feColorMatrix type="matrix" values="0 0 0 0 0.690576 0 0 0 0 0.690576 0 0 0 0 0.690576 0 0 0 0.15 0"/>
<feBlend mode="normal" in2="BackgroundImageFix" result="effect1_dropShadow_736_630"/>
<feBlend mode="normal" in="SourceGraphic" in2="effect1_dropShadow_736_630" result="shape"/>
</filter>
<filter id="filter3_d_736_630" x="215" y="86" width="99" height="99" filterUnits="userSpaceOnUse" color-interpolation-filters="sRGB">
<feFlood flood-opacity="0" result="BackgroundImageFix"/>
<feColorMatrix in="SourceAlpha" type="matrix" values="0 0 0 0 0 0 0 0 0 0 0 0 0 0 0 0 0 0 127 0" result="hardAlpha"/>
<feOffset dx="4" dy="4"/>
<feGaussianBlur stdDeviation="5"/>
<feComposite in2="hardAlpha" operator="out"/>
<feColorMatrix type="matrix" values="0 0 0 0 0.690576 0 0 0 0 0.690576 0 0 0 0 0.690576 0 0 0 0.15 0"/>
<feBlend mode="normal" in2="BackgroundImageFix" result="effect1_dropShadow_736_630"/>
<feBlend mode="normal" in="SourceGraphic" in2="effect1_dropShadow_736_630" result="shape"/>
</filter>
<clipPath id="clip0_736_630">
<rect width="42.4369" height="42.4369" fill="white" transform="translate(236 114) rotate(-10.0846)"/>
</clipPath>
</defs>
</svg>
