<svg width="479" height="294" viewBox="0 0 479 294" fill="none" xmlns="http://www.w3.org/2000/svg">
<path d="M26.4232 212.9C28.3134 212.9 29.8449 211.356 29.8449 209.45C29.8449 207.545 28.3134 206 26.4232 206C24.533 206 23 207.545 23 209.45C23 211.356 24.533 212.9 26.4232 212.9Z" fill="#F1B357"/>
<path d="M26.4232 239.748C28.3134 239.748 29.8449 238.203 29.8449 236.298C29.8449 234.392 28.3134 232.847 26.4232 232.847C24.533 232.847 23 234.392 23 236.298C23 238.203 24.533 239.748 26.4232 239.748Z" fill="#F1B357"/>
<path d="M54.3838 266.817C56.274 266.817 57.8056 265.273 57.8056 263.367C57.8056 261.462 56.274 259.917 54.3838 259.917C52.4937 259.917 50.9607 261.462 50.9607 263.367C50.9607 265.273 52.4937 266.817 54.3838 266.817Z" fill="#F1B357"/>
<path d="M54.3838 212.9C56.274 212.9 57.8056 211.356 57.8056 209.45C57.8056 207.545 56.274 206 54.3838 206C52.4937 206 50.9607 207.545 50.9607 209.45C50.9607 211.356 52.4937 212.9 54.3838 212.9Z" fill="#F1B357"/>
<path d="M54.3838 239.748C56.274 239.748 57.8056 238.203 57.8056 236.298C57.8056 234.392 56.274 232.847 54.3838 232.847C52.4937 232.847 50.9607 234.392 50.9607 236.298C50.9607 238.203 52.4937 239.748 54.3838 239.748Z" fill="#F1B357"/>
<path d="M81.9356 266.817C83.8258 266.817 85.3573 265.273 85.3573 263.367C85.3573 261.462 83.8258 259.917 81.9356 259.917C80.0454 259.917 78.5124 261.462 78.5124 263.367C78.5124 265.273 80.0454 266.817 81.9356 266.817Z" fill="#F1B357"/>
<path d="M81.9356 293.969C83.8258 293.969 85.3573 292.424 85.3573 290.519C85.3573 288.614 83.8258 287.069 81.9356 287.069C80.0454 287.069 78.5124 288.614 78.5124 290.519C78.5124 292.424 80.0454 293.969 81.9356 293.969Z" fill="#F1B357"/>
<path d="M81.9356 212.9C83.8258 212.9 85.3573 211.356 85.3573 209.45C85.3573 207.545 83.8258 206 81.9356 206C80.0454 206 78.5124 207.545 78.5124 209.45C78.5124 211.356 80.0454 212.9 81.9356 212.9Z" fill="#F1B357"/>
<path d="M81.9356 239.748C83.8258 239.748 85.3573 238.203 85.3573 236.298C85.3573 234.392 83.8258 232.847 81.9356 232.847C80.0454 232.847 78.5124 234.392 78.5124 236.298C78.5124 238.203 80.0454 239.748 81.9356 239.748Z" fill="#F1B357"/>
<path d="M110.304 266.817C112.194 266.817 113.725 265.273 113.725 263.367C113.725 261.462 112.194 259.917 110.304 259.917C108.414 259.917 106.881 261.462 106.881 263.367C106.881 265.273 108.414 266.817 110.304 266.817Z" fill="#F1B357"/>
<path d="M110.304 293.969C112.194 293.969 113.725 292.424 113.725 290.519C113.725 288.614 112.194 287.069 110.304 287.069C108.414 287.069 106.881 288.614 106.881 290.519C106.881 292.424 108.414 293.969 110.304 293.969Z" fill="#F1B357"/>
<path d="M110.304 240.155C112.194 240.155 113.725 238.61 113.725 236.705C113.725 234.799 112.194 233.255 110.304 233.255C108.414 233.255 106.881 234.799 106.881 236.705C106.881 238.61 108.414 240.155 110.304 240.155Z" fill="#F1B357"/>
<path d="M70 118C70 115.239 72.2386 113 75 113H344C346.761 113 349 115.239 349 118V243C349 245.761 346.761 248 344 248H75C72.2386 248 70 245.761 70 243V118Z" fill="#FBFBFB"/>
<path fill-rule="evenodd" clip-rule="evenodd" d="M344 114H75C72.7909 114 71 115.791 71 118V243C71 245.209 72.7909 247 75 247H344C346.209 247 348 245.209 348 243V118C348 115.791 346.209 114 344 114ZM75 113C72.2386 113 70 115.239 70 118V243C70 245.761 72.2386 248 75 248H344C346.761 248 349 245.761 349 243V118C349 115.239 346.761 113 344 113H75Z" fill="#ECECEC"/>
<path d="M0 5C0 2.23858 2.23858 0 5 0H293C295.761 0 298 2.23858 298 5V110C298 112.761 295.761 115 293 115H5C2.23858 115 0 112.761 0 110V5Z" fill="#FBFBFB"/>
<path fill-rule="evenodd" clip-rule="evenodd" d="M293 1H5C2.79086 1 1 2.79086 1 5V110C1 112.209 2.79086 114 5 114H293C295.209 114 297 112.209 297 110V5C297 2.79086 295.209 1 293 1ZM5 0C2.23858 0 0 2.23858 0 5V110C0 112.761 2.23858 115 5 115H293C295.761 115 298 112.761 298 110V5C298 2.23858 295.761 0 293 0H5Z" fill="#ECECEC"/>
<path d="M259 70C259 67.2386 261.239 65 264 65H474C476.761 65 479 67.2386 479 70V162C479 164.761 476.761 167 474 167H264C261.239 167 259 164.761 259 162V70Z" fill="#4B7CCB"/>
<path d="M17 25C17 22.2386 19.2386 20 22 20H87C89.7614 20 92 22.2386 92 25V90C92 92.7614 89.7614 95 87 95H22C19.2386 95 17 92.7614 17 90V25Z" fill="#F1B357"/>
<path d="M274 88C274 85.2386 276.239 83 279 83H330C332.761 83 335 85.2386 335 88V144C335 146.761 332.761 149 330 149H279C276.239 149 274 146.761 274 144V88Z" fill="#FBFBFB"/>
<path fill-rule="evenodd" clip-rule="evenodd" d="M330 84H279C276.791 84 275 85.7909 275 88V144C275 146.209 276.791 148 279 148H330C332.209 148 334 146.209 334 144V88C334 85.7909 332.209 84 330 84ZM279 83C276.239 83 274 85.2386 274 88V144C274 146.761 276.239 149 279 149H330C332.761 149 335 146.761 335 144V88C335 85.2386 332.761 83 330 83H279Z" fill="#ECECEC"/>
<path d="M85 138C85 135.239 87.2386 133 90 133H149C151.761 133 154 135.239 154 138V224C154 226.761 151.761 229 149 229H90C87.2386 229 85 226.761 85 224V138Z" fill="#4B7CCB"/>
<path d="M212.001 70.5788L210.269 70.8857C210.197 70.6641 210.082 70.4531 209.924 70.2528C209.771 70.0526 209.562 69.8885 209.298 69.7607C209.033 69.6328 208.703 69.5689 208.307 69.5689C207.766 69.5689 207.314 69.6903 206.952 69.9332C206.589 70.1719 206.408 70.4808 206.408 70.8601C206.408 71.1882 206.53 71.4524 206.773 71.6527C207.016 71.853 207.408 72.017 207.949 72.1449L209.509 72.5028C210.412 72.7116 211.085 73.0334 211.528 73.468C211.972 73.9027 212.193 74.4673 212.193 75.1619C212.193 75.75 212.023 76.2741 211.682 76.7344C211.345 77.1903 210.874 77.5483 210.269 77.8082C209.668 78.0682 208.972 78.1982 208.179 78.1982C207.08 78.1982 206.183 77.9638 205.488 77.495C204.793 77.022 204.367 76.3509 204.21 75.4815L206.057 75.2003C206.172 75.6818 206.408 76.0462 206.766 76.2933C207.124 76.5362 207.591 76.6577 208.166 76.6577C208.793 76.6577 209.293 76.5277 209.668 76.2678C210.043 76.0036 210.231 75.6818 210.231 75.3026C210.231 74.9957 210.116 74.7379 209.886 74.5291C209.66 74.3203 209.312 74.1626 208.844 74.0561L207.182 73.6918C206.266 73.4829 205.588 73.1506 205.149 72.6946C204.714 72.2386 204.497 71.6612 204.497 70.9624C204.497 70.3828 204.659 69.8757 204.983 69.4411C205.307 69.0064 205.754 68.6676 206.325 68.4247C206.896 68.1776 207.55 68.054 208.288 68.054C209.349 68.054 210.184 68.2841 210.793 68.7443C211.403 69.2003 211.805 69.8118 212.001 70.5788Z" fill="#424242"/>
<path d="M195.798 72.1705V78H193.886V68.1818H195.721V69.7798H195.842C196.068 69.2599 196.422 68.8423 196.903 68.527C197.389 68.2117 198.001 68.054 198.738 68.054C199.407 68.054 199.993 68.1946 200.496 68.4759C200.999 68.7528 201.388 69.1662 201.665 69.7159C201.942 70.2656 202.081 70.9453 202.081 71.755V78H200.17V71.9851C200.17 71.2734 199.984 70.7173 199.614 70.3168C199.243 69.9119 198.734 69.7095 198.086 69.7095C197.643 69.7095 197.249 69.8054 196.903 69.9972C196.562 70.1889 196.292 70.4702 196.092 70.8409C195.896 71.2074 195.798 71.6506 195.798 72.1705Z" fill="#424242"/>
<path d="M187.176 78.1982C186.256 78.1982 185.453 77.9872 184.767 77.5653C184.08 77.1435 183.548 76.5533 183.169 75.7947C182.789 75.0362 182.6 74.1499 182.6 73.1357C182.6 72.1172 182.789 71.2266 183.169 70.4638C183.548 69.701 184.08 69.1087 184.767 68.6868C185.453 68.2649 186.256 68.054 187.176 68.054C188.097 68.054 188.9 68.2649 189.586 68.6868C190.272 69.1087 190.805 69.701 191.184 70.4638C191.563 71.2266 191.753 72.1172 191.753 73.1357C191.753 74.1499 191.563 75.0362 191.184 75.7947C190.805 76.5533 190.272 77.1435 189.586 77.5653C188.9 77.9872 188.097 78.1982 187.176 78.1982ZM187.183 76.5938C187.779 76.5938 188.274 76.4361 188.666 76.1207C189.058 75.8054 189.347 75.3857 189.535 74.8615C189.727 74.3374 189.823 73.7599 189.823 73.1293C189.823 72.5028 189.727 71.9276 189.535 71.4034C189.347 70.875 189.058 70.451 188.666 70.1314C188.274 69.8118 187.779 69.652 187.183 69.652C186.582 69.652 186.083 69.8118 185.687 70.1314C185.295 70.451 185.003 70.875 184.811 71.4034C184.624 71.9276 184.53 72.5028 184.53 73.1293C184.53 73.7599 184.624 74.3374 184.811 74.8615C185.003 75.3857 185.295 75.8054 185.687 76.1207C186.083 76.4361 186.582 76.5938 187.183 76.5938Z" fill="#424242"/>
<path d="M178.558 78V68.1818H180.469V78H178.558ZM179.523 66.6669C179.191 66.6669 178.906 66.5561 178.667 66.3345C178.433 66.1087 178.315 65.8402 178.315 65.5291C178.315 65.2138 178.433 64.9453 178.667 64.7237C178.906 64.4979 179.191 64.3849 179.523 64.3849C179.856 64.3849 180.139 64.4979 180.374 64.7237C180.612 64.9453 180.732 65.2138 180.732 65.5291C180.732 65.8402 180.612 66.1087 180.374 66.3345C180.139 66.5561 179.856 66.6669 179.523 66.6669Z" fill="#424242"/>
<path d="M176.265 70.5788L174.533 70.8857C174.46 70.6641 174.345 70.4531 174.188 70.2528C174.034 70.0526 173.825 69.8885 173.561 69.7607C173.297 69.6328 172.967 69.5689 172.57 69.5689C172.029 69.5689 171.578 69.6903 171.215 69.9332C170.853 70.1719 170.672 70.4808 170.672 70.8601C170.672 71.1882 170.794 71.4524 171.036 71.6527C171.279 71.853 171.671 72.017 172.213 72.1449L173.772 72.5028C174.676 72.7116 175.349 73.0334 175.792 73.468C176.235 73.9027 176.457 74.4673 176.457 75.1619C176.457 75.75 176.286 76.2741 175.945 76.7344C175.609 77.1903 175.138 77.5483 174.533 77.8082C173.932 78.0682 173.235 78.1982 172.443 78.1982C171.343 78.1982 170.446 77.9638 169.752 77.495C169.057 77.022 168.631 76.3509 168.473 75.4815L170.32 75.2003C170.436 75.6818 170.672 76.0462 171.03 76.2933C171.388 76.5362 171.855 76.6577 172.43 76.6577C173.056 76.6577 173.557 76.5277 173.932 76.2678C174.307 76.0036 174.495 75.6818 174.495 75.3026C174.495 74.9957 174.379 74.7379 174.149 74.5291C173.923 74.3203 173.576 74.1626 173.107 74.0561L171.445 73.6918C170.529 73.4829 169.852 73.1506 169.413 72.6946C168.978 72.2386 168.761 71.6612 168.761 70.9624C168.761 70.3828 168.923 69.8757 169.247 69.4411C169.57 69.0064 170.018 68.6676 170.589 68.4247C171.16 68.1776 171.814 68.054 172.551 68.054C173.612 68.054 174.448 68.2841 175.057 68.7443C175.666 69.2003 176.069 69.8118 176.265 70.5788Z" fill="#424242"/>
<path d="M166.615 70.5788L164.882 70.8857C164.81 70.6641 164.695 70.4531 164.537 70.2528C164.384 70.0526 164.175 69.8885 163.911 69.7607C163.647 69.6328 163.316 69.5689 162.92 69.5689C162.379 69.5689 161.927 69.6903 161.565 69.9332C161.203 70.1719 161.022 70.4808 161.022 70.8601C161.022 71.1882 161.143 71.4524 161.386 71.6527C161.629 71.853 162.021 72.017 162.562 72.1449L164.122 72.5028C165.025 72.7116 165.699 73.0334 166.142 73.468C166.585 73.9027 166.806 74.4673 166.806 75.1619C166.806 75.75 166.636 76.2741 166.295 76.7344C165.958 77.1903 165.488 77.5483 164.882 77.8082C164.282 78.0682 163.585 78.1982 162.792 78.1982C161.693 78.1982 160.796 77.9638 160.101 77.495C159.407 77.022 158.98 76.3509 158.823 75.4815L160.67 75.2003C160.785 75.6818 161.022 76.0462 161.38 76.2933C161.738 76.5362 162.204 76.6577 162.779 76.6577C163.406 76.6577 163.907 76.5277 164.282 76.2678C164.657 76.0036 164.844 75.6818 164.844 75.3026C164.844 74.9957 164.729 74.7379 164.499 74.5291C164.273 74.3203 163.926 74.1626 163.457 74.0561L161.795 73.6918C160.879 73.4829 160.201 73.1506 159.762 72.6946C159.328 72.2386 159.11 71.6612 159.11 70.9624C159.11 70.3828 159.272 69.8757 159.596 69.4411C159.92 69.0064 160.368 68.6676 160.939 68.4247C161.51 68.1776 162.164 68.054 162.901 68.054C163.962 68.054 164.797 68.2841 165.407 68.7443C166.016 69.2003 166.419 69.8118 166.615 70.5788Z" fill="#424242"/>
<path d="M154.775 78V68.1818H156.686V78H154.775ZM155.74 66.6669C155.408 66.6669 155.122 66.5561 154.884 66.3345C154.649 66.1087 154.532 65.8402 154.532 65.5291C154.532 65.2138 154.649 64.9453 154.884 64.7237C155.122 64.4979 155.408 64.3849 155.74 64.3849C156.073 64.3849 156.356 64.4979 156.59 64.7237C156.829 64.9453 156.948 65.2138 156.948 65.5291C156.948 65.8402 156.829 66.1087 156.59 66.3345C156.356 66.5561 156.073 66.6669 155.74 66.6669Z" fill="#424242"/>
<path d="M138.867 78V68.1818H140.701V69.7798H140.823C141.027 69.2386 141.362 68.8168 141.826 68.5142C142.291 68.2074 142.847 68.054 143.495 68.054C144.151 68.054 144.701 68.2074 145.144 68.5142C145.591 68.821 145.922 69.2429 146.135 69.7798H146.237C146.471 69.2557 146.844 68.8381 147.355 68.527C147.867 68.2117 148.476 68.054 149.184 68.054C150.074 68.054 150.801 68.3331 151.363 68.8913C151.93 69.4496 152.213 70.2912 152.213 71.4162V78H150.302V71.5952C150.302 70.9304 150.121 70.4489 149.759 70.1506C149.397 69.8523 148.964 69.7031 148.461 69.7031C147.839 69.7031 147.355 69.8949 147.01 70.2784C146.665 70.6577 146.493 71.1456 146.493 71.7422V78H144.588V71.4737C144.588 70.9411 144.422 70.5128 144.089 70.1889C143.757 69.8651 143.324 69.7031 142.792 69.7031C142.429 69.7031 142.095 69.799 141.788 69.9908C141.485 70.1783 141.24 70.4403 141.053 70.777C140.87 71.1136 140.778 71.5035 140.778 71.9467V78H138.867Z" fill="#424242"/>
<path d="M131.959 78V68.1818H133.806V69.7415H133.908C134.087 69.2131 134.403 68.7976 134.854 68.495C135.31 68.1882 135.826 68.0348 136.401 68.0348C136.52 68.0348 136.661 68.0391 136.823 68.0476C136.989 68.0561 137.119 68.0668 137.213 68.0795V69.9077C137.136 69.8864 137 69.8629 136.804 69.8374C136.608 69.8075 136.412 69.7926 136.216 69.7926C135.764 69.7926 135.361 69.8885 135.008 70.0803C134.658 70.2678 134.381 70.5298 134.177 70.8665C133.972 71.1989 133.87 71.5781 133.87 72.0043V78H131.959Z" fill="#424242"/>
<path d="M125.626 78.1982C124.658 78.1982 123.825 77.9915 123.126 77.5781C122.432 77.1605 121.895 76.5746 121.516 75.8203C121.141 75.0618 120.953 74.1733 120.953 73.1548C120.953 72.1491 121.141 71.2628 121.516 70.4957C121.895 69.7287 122.423 69.13 123.101 68.6996C123.783 68.2692 124.58 68.054 125.491 68.054C126.045 68.054 126.582 68.1456 127.102 68.3288C127.622 68.5121 128.089 68.7997 128.502 69.1918C128.915 69.5838 129.241 70.093 129.48 70.7195C129.719 71.3416 129.838 72.098 129.838 72.9886V73.6662H122.033V72.2344H127.965C127.965 71.7315 127.863 71.2862 127.658 70.8984C127.454 70.5064 127.166 70.1974 126.795 69.9716C126.429 69.7457 125.999 69.6328 125.504 69.6328C124.967 69.6328 124.499 69.7649 124.098 70.0291C123.702 70.2891 123.395 70.63 123.178 71.0518C122.964 71.4695 122.858 71.9233 122.858 72.4134V73.532C122.858 74.1882 122.973 74.7465 123.203 75.2067C123.438 75.6669 123.763 76.0185 124.181 76.2614C124.599 76.5 125.087 76.6193 125.645 76.6193C126.007 76.6193 126.337 76.5682 126.636 76.4659C126.934 76.3594 127.192 76.2017 127.409 75.9929C127.626 75.7841 127.793 75.5263 127.908 75.2195L129.717 75.5455C129.572 76.0781 129.312 76.5447 128.937 76.9453C128.566 77.3416 128.099 77.6506 127.537 77.8722C126.979 78.0895 126.342 78.1982 125.626 78.1982Z" fill="#424242"/>
<path d="M110.285 81.6818V68.1818H112.151V69.7734H112.311C112.422 69.5689 112.582 69.3324 112.79 69.0639C112.999 68.7955 113.289 68.5611 113.66 68.3608C114.031 68.1562 114.521 68.054 115.13 68.054C115.923 68.054 116.63 68.2543 117.252 68.6548C117.874 69.0554 118.362 69.6328 118.716 70.3871C119.074 71.1413 119.253 72.049 119.253 73.1101C119.253 74.1712 119.076 75.081 118.722 75.8395C118.369 76.5938 117.883 77.1754 117.265 77.5845C116.647 77.9893 115.942 78.1918 115.149 78.1918C114.553 78.1918 114.065 78.0916 113.685 77.8913C113.31 77.691 113.016 77.4567 112.803 77.1882C112.59 76.9197 112.426 76.6811 112.311 76.4723H112.196V81.6818H110.285ZM112.158 73.0909C112.158 73.7812 112.258 74.3864 112.458 74.9062C112.658 75.4261 112.948 75.8331 113.327 76.1271C113.707 76.4169 114.171 76.5618 114.721 76.5618C115.292 76.5618 115.769 76.4105 116.153 76.108C116.536 75.8011 116.826 75.3857 117.022 74.8615C117.222 74.3374 117.322 73.7472 117.322 73.0909C117.322 72.4432 117.224 71.8615 117.028 71.3459C116.837 70.8303 116.547 70.4233 116.159 70.125C115.776 69.8267 115.296 69.6776 114.721 69.6776C114.167 69.6776 113.698 69.8203 113.315 70.1058C112.935 70.3913 112.648 70.7898 112.452 71.3011C112.256 71.8125 112.158 72.4091 112.158 73.0909Z" fill="#424242"/>
<path d="M240.868 55.6818C240.582 55.6818 240.322 55.6584 240.088 55.6115C239.854 55.5689 239.679 55.522 239.564 55.4709L240.024 53.9048C240.374 53.9986 240.685 54.0391 240.957 54.0263C241.23 54.0135 241.471 53.9112 241.68 53.7195C241.893 53.5277 242.08 53.2145 242.242 52.7798L242.479 52.1278L238.886 42.1818H240.932L243.418 49.8011H243.521L246.007 42.1818H248.059L244.013 53.3104C243.825 53.8217 243.587 54.2543 243.297 54.608C243.007 54.9659 242.662 55.2344 242.261 55.4134C241.861 55.5923 241.396 55.6818 240.868 55.6818Z" fill="#424242"/>
<path d="M232.453 52V42.1818H234.3V43.7415H234.402C234.581 43.2131 234.897 42.7976 235.348 42.495C235.804 42.1882 236.32 42.0348 236.895 42.0348C237.015 42.0348 237.155 42.0391 237.317 42.0476C237.483 42.0561 237.613 42.0668 237.707 42.0795V43.9077C237.63 43.8864 237.494 43.8629 237.298 43.8374C237.102 43.8075 236.906 43.7926 236.71 43.7926C236.258 43.7926 235.855 43.8885 235.502 44.0803C235.152 44.2678 234.875 44.5298 234.671 44.8665C234.466 45.1989 234.364 45.5781 234.364 46.0043V52H232.453Z" fill="#424242"/>
<path d="M225.062 52.2173C224.44 52.2173 223.877 52.1023 223.374 51.8722C222.872 51.6378 222.473 51.299 222.179 50.8558C221.889 50.4126 221.745 49.8693 221.745 49.2259C221.745 48.6719 221.851 48.2159 222.064 47.858C222.277 47.5 222.565 47.2166 222.927 47.0078C223.289 46.799 223.694 46.6413 224.142 46.5348C224.589 46.4283 225.045 46.3473 225.509 46.2919C226.097 46.2237 226.575 46.1683 226.941 46.1257C227.308 46.0788 227.574 46.0043 227.74 45.902C227.906 45.7997 227.99 45.6335 227.99 45.4034V45.3587C227.99 44.8004 227.832 44.3679 227.517 44.0611C227.205 43.7543 226.741 43.6009 226.123 43.6009C225.48 43.6009 224.972 43.7436 224.602 44.0291C224.235 44.3104 223.982 44.6236 223.841 44.9688L222.045 44.5597C222.258 43.9631 222.569 43.4815 222.978 43.1151C223.392 42.7443 223.867 42.4759 224.404 42.3097C224.941 42.1392 225.505 42.054 226.097 42.054C226.49 42.054 226.905 42.1009 227.344 42.1946C227.787 42.2841 228.2 42.4503 228.584 42.6932C228.972 42.9361 229.289 43.2834 229.536 43.7351C229.784 44.1825 229.907 44.7642 229.907 45.4801V52H228.041V50.6577H227.964C227.84 50.9048 227.655 51.1477 227.408 51.3864C227.161 51.625 226.843 51.8232 226.455 51.9808C226.068 52.1385 225.603 52.2173 225.062 52.2173ZM225.477 50.6832C226.006 50.6832 226.458 50.5788 226.833 50.37C227.212 50.1612 227.499 49.8885 227.695 49.5518C227.896 49.2109 227.996 48.8466 227.996 48.4588V47.1932C227.928 47.2614 227.796 47.3253 227.6 47.3849C227.408 47.4403 227.188 47.4893 226.941 47.532C226.694 47.5703 226.453 47.6065 226.219 47.6406C225.985 47.6705 225.789 47.696 225.631 47.7173C225.26 47.7642 224.921 47.843 224.615 47.9538C224.312 48.0646 224.069 48.2244 223.886 48.4332C223.707 48.6378 223.617 48.9105 223.617 49.2514C223.617 49.7244 223.792 50.0824 224.142 50.3253C224.491 50.5639 224.936 50.6832 225.477 50.6832Z" fill="#424242"/>
<path d="M219.912 44.5788L218.179 44.8857C218.107 44.6641 217.992 44.4531 217.834 44.2528C217.681 44.0526 217.472 43.8885 217.208 43.7607C216.944 43.6328 216.613 43.5689 216.217 43.5689C215.676 43.5689 215.224 43.6903 214.862 43.9332C214.5 44.1719 214.319 44.4808 214.319 44.8601C214.319 45.1882 214.44 45.4524 214.683 45.6527C214.926 45.853 215.318 46.017 215.859 46.1449L217.419 46.5028C218.322 46.7117 218.995 47.0334 219.439 47.468C219.882 47.9027 220.103 48.4673 220.103 49.1619C220.103 49.75 219.933 50.2741 219.592 50.7344C219.255 51.1903 218.784 51.5483 218.179 51.8082C217.578 52.0682 216.882 52.1982 216.089 52.1982C214.99 52.1982 214.093 51.9638 213.398 51.495C212.703 51.022 212.277 50.3509 212.12 49.4815L213.967 49.2003C214.082 49.6818 214.319 50.0462 214.676 50.2933C215.034 50.5362 215.501 50.6577 216.076 50.6577C216.703 50.6577 217.203 50.5277 217.578 50.2678C217.953 50.0036 218.141 49.6818 218.141 49.3026C218.141 48.9957 218.026 48.7379 217.796 48.5291C217.57 48.3203 217.223 48.1626 216.754 48.0561L215.092 47.6918C214.176 47.483 213.498 47.1506 213.059 46.6946C212.625 46.2386 212.407 45.6612 212.407 44.9624C212.407 44.3828 212.569 43.8757 212.893 43.4411C213.217 43.0064 213.664 42.6676 214.235 42.4247C214.806 42.1776 215.461 42.054 216.198 42.054C217.259 42.054 218.094 42.2841 218.703 42.7443C219.313 43.2003 219.716 43.8118 219.912 44.5788Z" fill="#424242"/>
<path d="M210.261 44.5788L208.529 44.8857C208.456 44.6641 208.341 44.4531 208.184 44.2528C208.03 44.0526 207.822 43.8885 207.557 43.7607C207.293 43.6328 206.963 43.5689 206.567 43.5689C206.025 43.5689 205.574 43.6903 205.211 43.9332C204.849 44.1719 204.668 44.4808 204.668 44.8601C204.668 45.1882 204.79 45.4524 205.033 45.6527C205.275 45.853 205.667 46.017 206.209 46.1449L207.768 46.5028C208.672 46.7117 209.345 47.0334 209.788 47.468C210.231 47.9027 210.453 48.4673 210.453 49.1619C210.453 49.75 210.283 50.2741 209.942 50.7344C209.605 51.1903 209.134 51.5483 208.529 51.8082C207.928 52.0682 207.231 52.1982 206.439 52.1982C205.339 52.1982 204.442 51.9638 203.748 51.495C203.053 51.022 202.627 50.3509 202.469 49.4815L204.317 49.2003C204.432 49.6818 204.668 50.0462 205.026 50.2933C205.384 50.5362 205.851 50.6577 206.426 50.6577C207.052 50.6577 207.553 50.5277 207.928 50.2678C208.303 50.0036 208.491 49.6818 208.491 49.3026C208.491 48.9957 208.376 48.7379 208.145 48.5291C207.92 48.3203 207.572 48.1626 207.104 48.0561L205.442 47.6918C204.525 47.483 203.848 47.1506 203.409 46.6946C202.974 46.2386 202.757 45.6612 202.757 44.9624C202.757 44.3828 202.919 43.8757 203.243 43.4411C203.567 43.0064 204.014 42.6676 204.585 42.4247C205.156 42.1776 205.81 42.054 206.547 42.054C207.608 42.054 208.444 42.2841 209.053 42.7443C209.662 43.2003 210.065 43.8118 210.261 44.5788Z" fill="#424242"/>
<path d="M196.571 52.1982C195.604 52.1982 194.771 51.9915 194.072 51.5781C193.377 51.1605 192.84 50.5746 192.461 49.8203C192.086 49.0618 191.898 48.1733 191.898 47.1548C191.898 46.1492 192.086 45.2628 192.461 44.4957C192.84 43.7287 193.369 43.13 194.046 42.6996C194.728 42.2692 195.525 42.054 196.437 42.054C196.991 42.054 197.528 42.1456 198.048 42.3288C198.567 42.5121 199.034 42.7997 199.447 43.1918C199.861 43.5838 200.187 44.093 200.425 44.7195C200.664 45.3416 200.783 46.098 200.783 46.9886V47.6662H192.979V46.2344H198.911C198.911 45.7315 198.808 45.2862 198.604 44.8984C198.399 44.5064 198.112 44.1974 197.741 43.9716C197.374 43.7457 196.944 43.6328 196.45 43.6328C195.913 43.6328 195.444 43.7649 195.043 44.0291C194.647 44.2891 194.34 44.63 194.123 45.0518C193.91 45.4695 193.803 45.9233 193.803 46.4134V47.532C193.803 48.1882 193.918 48.7464 194.148 49.2067C194.383 49.6669 194.709 50.0185 195.126 50.2614C195.544 50.5 196.032 50.6193 196.59 50.6193C196.952 50.6193 197.283 50.5682 197.581 50.4659C197.879 50.3594 198.137 50.2017 198.354 49.9929C198.572 49.7841 198.738 49.5263 198.853 49.2195L200.662 49.5455C200.517 50.0781 200.257 50.5447 199.882 50.9453C199.511 51.3416 199.045 51.6506 198.482 51.8722C197.924 52.0895 197.287 52.1982 196.571 52.1982Z" fill="#424242"/>
<path d="M186.262 52.1982C185.312 52.1982 184.494 51.983 183.808 51.5526C183.126 51.1179 182.602 50.5192 182.235 49.7564C181.869 48.9936 181.686 48.12 181.686 47.1357C181.686 46.1385 181.873 45.2585 182.248 44.4957C182.623 43.7287 183.151 43.13 183.833 42.6996C184.515 42.2692 185.318 42.054 186.243 42.054C186.989 42.054 187.654 42.1925 188.237 42.4695C188.821 42.7422 189.292 43.1257 189.65 43.62C190.012 44.1143 190.227 44.6918 190.296 45.3523H188.436C188.333 44.892 188.099 44.4957 187.732 44.1634C187.37 43.831 186.884 43.6648 186.275 43.6648C185.742 43.6648 185.276 43.8054 184.875 44.0866C184.479 44.3636 184.17 44.7599 183.948 45.2756C183.727 45.7869 183.616 46.392 183.616 47.0909C183.616 47.8068 183.725 48.4247 183.942 48.9446C184.159 49.4645 184.466 49.8672 184.862 50.1527C185.263 50.4382 185.734 50.581 186.275 50.581C186.637 50.581 186.965 50.5149 187.259 50.3828C187.558 50.2464 187.807 50.0526 188.007 49.8011C188.212 49.5497 188.355 49.2472 188.436 48.8935H190.296C190.227 49.5284 190.021 50.0952 189.676 50.5938C189.33 51.0923 188.868 51.4844 188.289 51.7699C187.713 52.0554 187.038 52.1982 186.262 52.1982Z" fill="#424242"/>
<path d="M175.794 52.1982C174.826 52.1982 173.993 51.9915 173.294 51.5781C172.6 51.1605 172.063 50.5746 171.684 49.8203C171.309 49.0618 171.121 48.1733 171.121 47.1548C171.121 46.1492 171.309 45.2628 171.684 44.4957C172.063 43.7287 172.591 43.13 173.269 42.6996C173.951 42.2692 174.748 42.054 175.659 42.054C176.213 42.054 176.75 42.1456 177.27 42.3288C177.79 42.5121 178.257 42.7997 178.67 43.1918C179.083 43.5838 179.409 44.093 179.648 44.7195C179.887 45.3416 180.006 46.098 180.006 46.9886V47.6662H172.201V46.2344H178.133C178.133 45.7315 178.031 45.2862 177.826 44.8984C177.622 44.5064 177.334 44.1974 176.963 43.9716C176.597 43.7457 176.167 43.6328 175.672 43.6328C175.135 43.6328 174.667 43.7649 174.266 44.0291C173.87 44.2891 173.563 44.63 173.346 45.0518C173.132 45.4695 173.026 45.9233 173.026 46.4134V47.532C173.026 48.1882 173.141 48.7464 173.371 49.2067C173.605 49.6669 173.931 50.0185 174.349 50.2614C174.767 50.5 175.255 50.6193 175.813 50.6193C176.175 50.6193 176.505 50.5682 176.804 50.4659C177.102 50.3594 177.36 50.2017 177.577 49.9929C177.794 49.7841 177.961 49.5263 178.076 49.2195L179.885 49.5455C179.74 50.0781 179.48 50.5447 179.105 50.9453C178.734 51.3416 178.267 51.6506 177.705 51.8722C177.147 52.0895 176.51 52.1982 175.794 52.1982Z" fill="#424242"/>
<path d="M162.716 46.1705V52H160.804V42.1818H162.639V43.7798H162.76C162.986 43.2599 163.34 42.8423 163.821 42.527C164.307 42.2116 164.919 42.054 165.656 42.054C166.325 42.054 166.911 42.1946 167.414 42.4759C167.917 42.7528 168.306 43.1662 168.583 43.7159C168.86 44.2656 168.999 44.9453 168.999 45.755V52H167.088V45.9851C167.088 45.2734 166.902 44.7173 166.532 44.3168C166.161 43.9119 165.652 43.7095 165.004 43.7095C164.561 43.7095 164.167 43.8054 163.821 43.9972C163.48 44.1889 163.21 44.4702 163.01 44.8409C162.814 45.2074 162.716 45.6506 162.716 46.1705Z" fill="#424242"/>
<path d="M151.958 46.1705V52H150.047V42.1818H151.881V43.7798H152.002C152.228 43.2599 152.582 42.8423 153.064 42.527C153.549 42.2116 154.161 42.054 154.898 42.054C155.567 42.054 156.153 42.1946 156.656 42.4759C157.159 42.7528 157.549 43.1662 157.826 43.7159C158.103 44.2656 158.241 44.9453 158.241 45.755V52H156.33V45.9851C156.33 45.2734 156.145 44.7173 155.774 44.3168C155.403 43.9119 154.894 43.7095 154.246 43.7095C153.803 43.7095 153.409 43.8054 153.064 43.9972C152.723 44.1889 152.452 44.4702 152.252 44.8409C152.056 45.2074 151.958 45.6506 151.958 46.1705Z" fill="#424242"/>
<path d="M145.561 47.9283V42.1818H147.479V52H145.599V50.2997H145.497C145.271 50.8239 144.909 51.2607 144.41 51.6101C143.916 51.9553 143.3 52.1278 142.563 52.1278C141.932 52.1278 141.374 51.9893 140.888 51.7124C140.407 51.4311 140.028 51.0156 139.751 50.4659C139.478 49.9162 139.341 49.2365 139.341 48.4268V42.1818H141.253V48.1967C141.253 48.8658 141.438 49.3984 141.809 49.7947C142.18 50.191 142.661 50.3892 143.253 50.3892C143.611 50.3892 143.967 50.2997 144.321 50.1207C144.679 49.9418 144.975 49.6712 145.209 49.3089C145.448 48.9467 145.565 48.4865 145.561 47.9283Z" fill="#424242"/>
<path d="M127.868 52.1982C126.947 52.1982 126.144 51.9872 125.458 51.5653C124.772 51.1435 124.239 50.5533 123.86 49.7947C123.481 49.0362 123.291 48.1499 123.291 47.1357C123.291 46.1172 123.481 45.2266 123.86 44.4638C124.239 43.701 124.772 43.1087 125.458 42.6868C126.144 42.2649 126.947 42.054 127.868 42.054C128.788 42.054 129.591 42.2649 130.278 42.6868C130.964 43.1087 131.496 43.701 131.876 44.4638C132.255 45.2266 132.444 46.1172 132.444 47.1357C132.444 48.1499 132.255 49.0362 131.876 49.7947C131.496 50.5533 130.964 51.1435 130.278 51.5653C129.591 51.9872 128.788 52.1982 127.868 52.1982ZM127.874 50.5938C128.471 50.5938 128.965 50.4361 129.357 50.1207C129.749 49.8054 130.039 49.3857 130.226 48.8615C130.418 48.3374 130.514 47.7599 130.514 47.1293C130.514 46.5028 130.418 45.9276 130.226 45.4034C130.039 44.875 129.749 44.451 129.357 44.1314C128.965 43.8118 128.471 43.652 127.874 43.652C127.273 43.652 126.775 43.8118 126.378 44.1314C125.986 44.451 125.694 44.875 125.503 45.4034C125.315 45.9276 125.221 46.5028 125.221 47.1293C125.221 47.7599 125.315 48.3374 125.503 48.8615C125.694 49.3857 125.986 49.8054 126.378 50.1207C126.775 50.4361 127.273 50.5938 127.874 50.5938Z" fill="#424242"/>
<path d="M121.004 38.9091V52H119.189L112.535 42.3992H112.413V52H110.438V38.9091H112.266L118.927 48.5227H119.048V38.9091H121.004Z" fill="#424242"/>
<path d="M416.64 139.886C415.86 139.886 415.189 139.784 414.626 139.58C414.068 139.375 413.612 139.104 413.258 138.768C412.904 138.431 412.64 138.062 412.466 137.662L414.108 136.984C414.223 137.172 414.377 137.37 414.569 137.579C414.765 137.792 415.029 137.973 415.361 138.122C415.698 138.271 416.13 138.346 416.659 138.346C417.383 138.346 417.982 138.169 418.455 137.815C418.928 137.466 419.164 136.908 419.164 136.141V134.21H419.043C418.928 134.419 418.762 134.651 418.544 134.907C418.331 135.163 418.037 135.384 417.662 135.572C417.287 135.759 416.799 135.853 416.199 135.853C415.423 135.853 414.724 135.672 414.102 135.31C413.484 134.943 412.994 134.404 412.632 133.692C412.274 132.977 412.095 132.097 412.095 131.053C412.095 130.009 412.272 129.114 412.625 128.368C412.983 127.622 413.473 127.051 414.096 126.655C414.718 126.254 415.423 126.054 416.211 126.054C416.821 126.054 417.313 126.156 417.688 126.361C418.063 126.561 418.355 126.795 418.564 127.064C418.777 127.332 418.941 127.569 419.056 127.773H419.196V126.182H421.069V136.217C421.069 137.061 420.873 137.754 420.481 138.295C420.089 138.836 419.559 139.236 418.89 139.496C418.225 139.756 417.475 139.886 416.64 139.886ZM416.62 134.268C417.17 134.268 417.635 134.14 418.014 133.884C418.397 133.624 418.687 133.254 418.883 132.772C419.083 132.286 419.184 131.705 419.184 131.027C419.184 130.366 419.086 129.785 418.89 129.282C418.694 128.779 418.406 128.387 418.027 128.106C417.647 127.82 417.179 127.678 416.62 127.678C416.045 127.678 415.566 127.827 415.182 128.125C414.799 128.419 414.509 128.82 414.313 129.327C414.121 129.834 414.025 130.401 414.025 131.027C414.025 131.67 414.123 132.235 414.319 132.721C414.515 133.207 414.805 133.586 415.189 133.859C415.576 134.131 416.054 134.268 416.62 134.268Z" fill="white"/>
<path d="M403.676 130.17V136H401.765V126.182H403.6V127.78H403.721C403.947 127.26 404.301 126.842 404.782 126.527C405.268 126.212 405.88 126.054 406.617 126.054C407.286 126.054 407.872 126.195 408.375 126.476C408.877 126.753 409.267 127.166 409.544 127.716C409.821 128.266 409.96 128.945 409.96 129.755V136H408.049V129.985C408.049 129.273 407.863 128.717 407.493 128.317C407.122 127.912 406.613 127.71 405.965 127.71C405.522 127.71 405.127 127.805 404.782 127.997C404.441 128.189 404.171 128.47 403.971 128.841C403.775 129.207 403.676 129.651 403.676 130.17Z" fill="white"/>
<path d="M397.283 136V126.182H399.194V136H397.283ZM398.248 124.667C397.916 124.667 397.63 124.556 397.392 124.335C397.157 124.109 397.04 123.84 397.04 123.529C397.04 123.214 397.157 122.945 397.392 122.724C397.63 122.498 397.916 122.385 398.248 122.385C398.58 122.385 398.864 122.498 399.098 122.724C399.337 122.945 399.456 123.214 399.456 123.529C399.456 123.84 399.337 124.109 399.098 124.335C398.864 124.556 398.58 124.667 398.248 124.667Z" fill="white"/>
<path d="M389.021 132.67L389.008 130.337H389.341L393.253 126.182H395.541L391.079 130.912H390.779L389.021 132.67ZM387.263 136V122.909H389.175V136H387.263ZM393.464 136L389.948 131.334L391.265 129.998L395.809 136H393.464Z" fill="white"/>
<path d="M381.186 136.198C380.236 136.198 379.418 135.983 378.732 135.553C378.05 135.118 377.526 134.519 377.159 133.756C376.793 132.994 376.609 132.12 376.609 131.136C376.609 130.138 376.797 129.259 377.172 128.496C377.547 127.729 378.075 127.13 378.757 126.7C379.439 126.269 380.242 126.054 381.167 126.054C381.913 126.054 382.577 126.192 383.161 126.469C383.745 126.742 384.216 127.126 384.574 127.62C384.936 128.114 385.151 128.692 385.219 129.352H383.359C383.257 128.892 383.023 128.496 382.656 128.163C382.294 127.831 381.808 127.665 381.199 127.665C380.666 127.665 380.2 127.805 379.799 128.087C379.403 128.364 379.094 128.76 378.872 129.276C378.651 129.787 378.54 130.392 378.54 131.091C378.54 131.807 378.648 132.425 378.866 132.945C379.083 133.464 379.39 133.867 379.786 134.153C380.187 134.438 380.658 134.581 381.199 134.581C381.561 134.581 381.889 134.515 382.183 134.383C382.482 134.246 382.731 134.053 382.931 133.801C383.136 133.55 383.278 133.247 383.359 132.893H385.219C385.151 133.528 384.945 134.095 384.599 134.594C384.254 135.092 383.792 135.484 383.212 135.77C382.637 136.055 381.962 136.198 381.186 136.198Z" fill="white"/>
<path d="M369.66 136.217C369.037 136.217 368.475 136.102 367.972 135.872C367.469 135.638 367.071 135.299 366.777 134.856C366.487 134.413 366.342 133.869 366.342 133.226C366.342 132.672 366.449 132.216 366.662 131.858C366.875 131.5 367.162 131.217 367.525 131.008C367.887 130.799 368.292 130.641 368.739 130.535C369.187 130.428 369.643 130.347 370.107 130.292C370.695 130.224 371.172 130.168 371.539 130.126C371.905 130.079 372.172 130.004 372.338 129.902C372.504 129.8 372.587 129.634 372.587 129.403V129.359C372.587 128.8 372.43 128.368 372.114 128.061C371.803 127.754 371.339 127.601 370.721 127.601C370.077 127.601 369.57 127.744 369.199 128.029C368.833 128.31 368.579 128.624 368.439 128.969L366.643 128.56C366.856 127.963 367.167 127.482 367.576 127.115C367.989 126.744 368.464 126.476 369.001 126.31C369.538 126.139 370.103 126.054 370.695 126.054C371.087 126.054 371.503 126.101 371.942 126.195C372.385 126.284 372.798 126.45 373.182 126.693C373.569 126.936 373.887 127.283 374.134 127.735C374.381 128.183 374.505 128.764 374.505 129.48V136H372.638V134.658H372.562C372.438 134.905 372.253 135.148 372.006 135.386C371.758 135.625 371.441 135.823 371.053 135.981C370.665 136.138 370.201 136.217 369.66 136.217ZM370.075 134.683C370.604 134.683 371.055 134.579 371.43 134.37C371.81 134.161 372.097 133.889 372.293 133.552C372.493 133.211 372.594 132.847 372.594 132.459V131.193C372.525 131.261 372.393 131.325 372.197 131.385C372.005 131.44 371.786 131.489 371.539 131.532C371.292 131.57 371.051 131.607 370.817 131.641C370.582 131.67 370.386 131.696 370.229 131.717C369.858 131.764 369.519 131.843 369.212 131.954C368.91 132.065 368.667 132.224 368.483 132.433C368.305 132.638 368.215 132.911 368.215 133.251C368.215 133.724 368.39 134.082 368.739 134.325C369.089 134.564 369.534 134.683 370.075 134.683Z" fill="white"/>
<path d="M359.982 136V126.182H361.829V127.741H361.932C362.111 127.213 362.426 126.798 362.878 126.495C363.334 126.188 363.849 126.035 364.425 126.035C364.544 126.035 364.684 126.039 364.846 126.048C365.013 126.056 365.143 126.067 365.236 126.08V127.908C365.16 127.886 365.023 127.863 364.827 127.837C364.631 127.808 364.435 127.793 364.239 127.793C363.787 127.793 363.385 127.888 363.031 128.08C362.682 128.268 362.405 128.53 362.2 128.866C361.996 129.199 361.893 129.578 361.893 130.004V136H359.982Z" fill="white"/>
<path d="M357.868 126.182V127.716H352.505V126.182H357.868ZM353.943 123.83H355.854V133.117C355.854 133.488 355.91 133.767 356.021 133.955C356.131 134.138 356.274 134.264 356.449 134.332C356.628 134.396 356.822 134.428 357.031 134.428C357.184 134.428 357.318 134.417 357.433 134.396C357.548 134.374 357.638 134.357 357.702 134.344L358.047 135.923C357.936 135.966 357.778 136.009 357.574 136.051C357.369 136.098 357.114 136.124 356.807 136.128C356.304 136.136 355.835 136.047 355.401 135.859C354.966 135.672 354.614 135.382 354.346 134.99C354.077 134.598 353.943 134.106 353.943 133.513V123.83Z" fill="white"/>
<path d="M432.223 113.682C431.938 113.682 431.678 113.658 431.444 113.612C431.209 113.569 431.034 113.522 430.919 113.471L431.38 111.905C431.729 111.999 432.04 112.039 432.313 112.026C432.586 112.013 432.826 111.911 433.035 111.719C433.248 111.528 433.436 111.214 433.598 110.78L433.834 110.128L430.242 100.182H432.287L434.774 107.801H434.876L437.363 100.182H439.414L435.368 111.31C435.181 111.822 434.942 112.254 434.652 112.608C434.363 112.966 434.017 113.234 433.617 113.413C433.216 113.592 432.752 113.682 432.223 113.682Z" fill="white"/>
<path d="M420.24 113.682V100.182H422.106V101.773H422.266C422.377 101.569 422.537 101.332 422.746 101.064C422.954 100.795 423.244 100.561 423.615 100.361C423.986 100.156 424.476 100.054 425.085 100.054C425.878 100.054 426.585 100.254 427.207 100.655C427.829 101.055 428.317 101.633 428.671 102.387C429.029 103.141 429.208 104.049 429.208 105.11C429.208 106.171 429.031 107.081 428.677 107.839C428.324 108.594 427.838 109.175 427.22 109.585C426.602 109.989 425.897 110.192 425.104 110.192C424.508 110.192 424.02 110.092 423.64 109.891C423.265 109.691 422.971 109.457 422.758 109.188C422.545 108.92 422.381 108.681 422.266 108.472H422.151V113.682H420.24ZM422.113 105.091C422.113 105.781 422.213 106.386 422.413 106.906C422.613 107.426 422.903 107.833 423.282 108.127C423.662 108.417 424.126 108.562 424.676 108.562C425.247 108.562 425.724 108.411 426.108 108.108C426.491 107.801 426.781 107.386 426.977 106.862C427.177 106.337 427.278 105.747 427.278 105.091C427.278 104.443 427.18 103.862 426.983 103.346C426.792 102.83 426.502 102.423 426.114 102.125C425.731 101.827 425.251 101.678 424.676 101.678C424.122 101.678 423.653 101.82 423.27 102.106C422.89 102.391 422.603 102.79 422.407 103.301C422.211 103.812 422.113 104.409 422.113 105.091Z" fill="white"/>
<path d="M413.907 110.198C412.94 110.198 412.107 109.991 411.408 109.578C410.713 109.161 410.176 108.575 409.797 107.82C409.422 107.062 409.234 106.173 409.234 105.155C409.234 104.149 409.422 103.263 409.797 102.496C410.176 101.729 410.705 101.13 411.382 100.7C412.064 100.269 412.861 100.054 413.773 100.054C414.327 100.054 414.864 100.146 415.384 100.329C415.903 100.512 416.37 100.8 416.783 101.192C417.197 101.584 417.523 102.093 417.761 102.719C418 103.342 418.119 104.098 418.119 104.989V105.666H410.315V104.234H416.246C416.246 103.732 416.144 103.286 415.94 102.898C415.735 102.506 415.447 102.197 415.077 101.972C414.71 101.746 414.28 101.633 413.786 101.633C413.249 101.633 412.78 101.765 412.379 102.029C411.983 102.289 411.676 102.63 411.459 103.052C411.246 103.469 411.139 103.923 411.139 104.413V105.532C411.139 106.188 411.254 106.746 411.484 107.207C411.719 107.667 412.045 108.018 412.462 108.261C412.88 108.5 413.368 108.619 413.926 108.619C414.288 108.619 414.619 108.568 414.917 108.466C415.215 108.359 415.473 108.202 415.69 107.993C415.908 107.784 416.074 107.526 416.189 107.219L417.998 107.545C417.853 108.078 417.593 108.545 417.218 108.945C416.847 109.342 416.381 109.651 415.818 109.872C415.26 110.089 414.623 110.198 413.907 110.198Z" fill="white"/>
<path d="M403.342 110.198C402.375 110.198 401.542 109.991 400.843 109.578C400.149 109.161 399.612 108.575 399.232 107.82C398.857 107.062 398.67 106.173 398.67 105.155C398.67 104.149 398.857 103.263 399.232 102.496C399.612 101.729 400.14 101.13 400.818 100.7C401.499 100.269 402.296 100.054 403.208 100.054C403.762 100.054 404.299 100.146 404.819 100.329C405.339 100.512 405.806 100.8 406.219 101.192C406.632 101.584 406.958 102.093 407.197 102.719C407.436 103.342 407.555 104.098 407.555 104.989V105.666H399.75V104.234H405.682C405.682 103.732 405.58 103.286 405.375 102.898C405.171 102.506 404.883 102.197 404.512 101.972C404.146 101.746 403.715 101.633 403.221 101.633C402.684 101.633 402.215 101.765 401.815 102.029C401.419 102.289 401.112 102.63 400.894 103.052C400.681 103.469 400.575 103.923 400.575 104.413V105.532C400.575 106.188 400.69 106.746 400.92 107.207C401.154 107.667 401.48 108.018 401.898 108.261C402.315 108.5 402.803 108.619 403.362 108.619C403.724 108.619 404.054 108.568 404.352 108.466C404.651 108.359 404.909 108.202 405.126 107.993C405.343 107.784 405.509 107.526 405.624 107.219L407.433 107.545C407.289 108.078 407.029 108.545 406.654 108.945C406.283 109.342 405.816 109.651 405.254 109.872C404.695 110.089 404.058 110.198 403.342 110.198Z" fill="white"/>
<path d="M392.554 110V100.182H394.402V101.741H394.504C394.683 101.213 394.998 100.798 395.45 100.495C395.906 100.188 396.422 100.035 396.997 100.035C397.116 100.035 397.257 100.039 397.419 100.048C397.585 100.056 397.715 100.067 397.809 100.08V101.908C397.732 101.886 397.595 101.863 397.399 101.837C397.203 101.808 397.007 101.793 396.811 101.793C396.36 101.793 395.957 101.888 395.603 102.08C395.254 102.268 394.977 102.53 394.772 102.866C394.568 103.199 394.466 103.578 394.466 104.004V110H392.554Z" fill="white"/>
<path d="M386.477 110.198C385.527 110.198 384.709 109.983 384.023 109.553C383.341 109.118 382.817 108.519 382.45 107.756C382.084 106.994 381.9 106.12 381.9 105.136C381.9 104.138 382.088 103.259 382.463 102.496C382.838 101.729 383.366 101.13 384.048 100.7C384.73 100.269 385.533 100.054 386.458 100.054C387.204 100.054 387.868 100.192 388.452 100.469C389.036 100.742 389.507 101.126 389.865 101.62C390.227 102.114 390.442 102.692 390.51 103.352H388.65C388.548 102.892 388.314 102.496 387.947 102.163C387.585 101.831 387.099 101.665 386.49 101.665C385.957 101.665 385.491 101.805 385.09 102.087C384.694 102.364 384.385 102.76 384.163 103.276C383.942 103.787 383.831 104.392 383.831 105.091C383.831 105.807 383.939 106.425 384.157 106.945C384.374 107.464 384.681 107.867 385.077 108.153C385.478 108.438 385.949 108.581 386.49 108.581C386.852 108.581 387.18 108.515 387.474 108.383C387.773 108.246 388.022 108.053 388.222 107.801C388.427 107.55 388.569 107.247 388.65 106.893H390.51C390.442 107.528 390.236 108.095 389.89 108.594C389.545 109.092 389.083 109.484 388.503 109.77C387.928 110.055 387.253 110.198 386.477 110.198Z" fill="white"/>
<path d="M370.868 110.198C369.947 110.198 369.144 109.987 368.458 109.565C367.772 109.143 367.239 108.553 366.86 107.795C366.481 107.036 366.291 106.15 366.291 105.136C366.291 104.117 366.481 103.227 366.86 102.464C367.239 101.701 367.772 101.109 368.458 100.687C369.144 100.265 369.947 100.054 370.868 100.054C371.788 100.054 372.591 100.265 373.278 100.687C373.964 101.109 374.496 101.701 374.876 102.464C375.255 103.227 375.444 104.117 375.444 105.136C375.444 106.15 375.255 107.036 374.876 107.795C374.496 108.553 373.964 109.143 373.278 109.565C372.591 109.987 371.788 110.198 370.868 110.198ZM370.874 108.594C371.471 108.594 371.965 108.436 372.357 108.121C372.749 107.805 373.039 107.386 373.226 106.862C373.418 106.337 373.514 105.76 373.514 105.129C373.514 104.503 373.418 103.928 373.226 103.403C373.039 102.875 372.749 102.451 372.357 102.131C371.965 101.812 371.471 101.652 370.874 101.652C370.273 101.652 369.775 101.812 369.378 102.131C368.986 102.451 368.694 102.875 368.503 103.403C368.315 103.928 368.221 104.503 368.221 105.129C368.221 105.76 368.315 106.337 368.503 106.862C368.694 107.386 368.986 107.805 369.378 108.121C369.775 108.436 370.273 108.594 370.874 108.594Z" fill="white"/>
<path d="M364.004 96.9091V110H362.189L355.535 100.399H355.413V110H353.438V96.9091H355.266L361.927 106.523H362.048V96.9091H364.004Z" fill="white"/>
<path d="M276.796 193.579L275.064 193.886C274.992 193.664 274.877 193.453 274.719 193.253C274.566 193.053 274.357 192.889 274.093 192.761C273.828 192.633 273.498 192.569 273.102 192.569C272.561 192.569 272.109 192.69 271.747 192.933C271.384 193.172 271.203 193.481 271.203 193.86C271.203 194.188 271.325 194.452 271.568 194.653C271.811 194.853 272.203 195.017 272.744 195.145L274.303 195.503C275.207 195.712 275.88 196.033 276.323 196.468C276.767 196.903 276.988 197.467 276.988 198.162C276.988 198.75 276.818 199.274 276.477 199.734C276.14 200.19 275.669 200.548 275.064 200.808C274.463 201.068 273.767 201.198 272.974 201.198C271.874 201.198 270.977 200.964 270.283 200.495C269.588 200.022 269.162 199.351 269.004 198.482L270.852 198.2C270.967 198.682 271.203 199.046 271.561 199.293C271.919 199.536 272.386 199.658 272.961 199.658C273.588 199.658 274.088 199.528 274.463 199.268C274.838 199.004 275.026 198.682 275.026 198.303C275.026 197.996 274.911 197.738 274.681 197.529C274.455 197.32 274.107 197.163 273.639 197.056L271.977 196.692C271.061 196.483 270.383 196.151 269.944 195.695C269.509 195.239 269.292 194.661 269.292 193.962C269.292 193.383 269.454 192.876 269.778 192.441C270.102 192.006 270.549 191.668 271.12 191.425C271.691 191.178 272.345 191.054 273.083 191.054C274.144 191.054 274.979 191.284 275.588 191.744C276.198 192.2 276.6 192.812 276.796 193.579Z" fill="#424242"/>
<path d="M260.592 195.17V201H258.681V191.182H260.516V192.78H260.637C260.863 192.26 261.217 191.842 261.698 191.527C262.184 191.212 262.796 191.054 263.533 191.054C264.202 191.054 264.788 191.195 265.291 191.476C265.793 191.753 266.183 192.166 266.46 192.716C266.737 193.266 266.876 193.945 266.876 194.755V201H264.965V194.985C264.965 194.273 264.779 193.717 264.409 193.317C264.038 192.912 263.529 192.71 262.881 192.71C262.438 192.71 262.044 192.805 261.698 192.997C261.357 193.189 261.087 193.47 260.887 193.841C260.691 194.207 260.592 194.651 260.592 195.17Z" fill="#424242"/>
<path d="M251.971 201.198C251.051 201.198 250.248 200.987 249.561 200.565C248.875 200.143 248.343 199.553 247.963 198.795C247.584 198.036 247.395 197.15 247.395 196.136C247.395 195.117 247.584 194.227 247.963 193.464C248.343 192.701 248.875 192.109 249.561 191.687C250.248 191.265 251.051 191.054 251.971 191.054C252.892 191.054 253.695 191.265 254.381 191.687C255.067 192.109 255.6 192.701 255.979 193.464C256.358 194.227 256.548 195.117 256.548 196.136C256.548 197.15 256.358 198.036 255.979 198.795C255.6 199.553 255.067 200.143 254.381 200.565C253.695 200.987 252.892 201.198 251.971 201.198ZM251.978 199.594C252.574 199.594 253.069 199.436 253.461 199.121C253.853 198.805 254.142 198.386 254.33 197.862C254.522 197.337 254.618 196.76 254.618 196.129C254.618 195.503 254.522 194.928 254.33 194.403C254.142 193.875 253.853 193.451 253.461 193.131C253.069 192.812 252.574 192.652 251.978 192.652C251.377 192.652 250.878 192.812 250.482 193.131C250.09 193.451 249.798 193.875 249.606 194.403C249.419 194.928 249.325 195.503 249.325 196.129C249.325 196.76 249.419 197.337 249.606 197.862C249.798 198.386 250.09 198.805 250.482 199.121C250.878 199.436 251.377 199.594 251.978 199.594Z" fill="#424242"/>
<path d="M243.353 201V191.182H245.264V201H243.353ZM244.318 189.667C243.986 189.667 243.7 189.556 243.462 189.335C243.227 189.109 243.11 188.84 243.11 188.529C243.11 188.214 243.227 187.945 243.462 187.724C243.7 187.498 243.986 187.385 244.318 187.385C244.651 187.385 244.934 187.498 245.169 187.724C245.407 187.945 245.526 188.214 245.526 188.529C245.526 188.84 245.407 189.109 245.169 189.335C244.934 189.556 244.651 189.667 244.318 189.667Z" fill="#424242"/>
<path d="M241.239 191.182V192.716H235.876V191.182H241.239ZM237.314 188.83H239.225V198.117C239.225 198.488 239.281 198.767 239.392 198.955C239.502 199.138 239.645 199.264 239.82 199.332C239.999 199.396 240.193 199.428 240.402 199.428C240.555 199.428 240.689 199.417 240.804 199.396C240.919 199.374 241.009 199.357 241.073 199.344L241.418 200.923C241.307 200.966 241.149 201.009 240.945 201.051C240.74 201.098 240.485 201.124 240.178 201.128C239.675 201.136 239.206 201.047 238.772 200.859C238.337 200.672 237.985 200.382 237.717 199.99C237.449 199.598 237.314 199.106 237.314 198.513V188.83Z" fill="#424242"/>
<path d="M229.265 201.217C228.643 201.217 228.08 201.102 227.578 200.872C227.075 200.638 226.676 200.299 226.382 199.856C226.092 199.413 225.948 198.869 225.948 198.226C225.948 197.672 226.054 197.216 226.267 196.858C226.48 196.5 226.768 196.217 227.13 196.008C227.492 195.799 227.897 195.641 228.345 195.535C228.792 195.428 229.248 195.347 229.713 195.292C230.301 195.224 230.778 195.168 231.144 195.126C231.511 195.079 231.777 195.004 231.943 194.902C232.11 194.8 232.193 194.634 232.193 194.403V194.359C232.193 193.8 232.035 193.368 231.72 193.061C231.409 192.754 230.944 192.601 230.326 192.601C229.683 192.601 229.176 192.744 228.805 193.029C228.438 193.31 228.185 193.624 228.044 193.969L226.248 193.56C226.461 192.963 226.772 192.482 227.181 192.115C227.595 191.744 228.07 191.476 228.607 191.31C229.144 191.139 229.708 191.054 230.301 191.054C230.693 191.054 231.108 191.101 231.547 191.195C231.99 191.284 232.404 191.45 232.787 191.693C233.175 191.936 233.492 192.283 233.74 192.735C233.987 193.183 234.11 193.764 234.11 194.48V201H232.244V199.658H232.167C232.044 199.905 231.858 200.148 231.611 200.386C231.364 200.625 231.046 200.823 230.659 200.981C230.271 201.139 229.806 201.217 229.265 201.217ZM229.681 199.683C230.209 199.683 230.661 199.579 231.036 199.37C231.415 199.161 231.703 198.889 231.899 198.552C232.099 198.211 232.199 197.847 232.199 197.459V196.193C232.131 196.261 231.999 196.325 231.803 196.385C231.611 196.44 231.392 196.489 231.144 196.532C230.897 196.57 230.656 196.607 230.422 196.641C230.188 196.67 229.992 196.696 229.834 196.717C229.463 196.764 229.124 196.843 228.818 196.954C228.515 197.065 228.272 197.224 228.089 197.433C227.91 197.638 227.82 197.911 227.82 198.251C227.82 198.724 227.995 199.082 228.345 199.325C228.694 199.564 229.139 199.683 229.681 199.683Z" fill="#424242"/>
<path d="M220.331 201.198C219.38 201.198 218.562 200.983 217.876 200.553C217.194 200.118 216.67 199.519 216.304 198.756C215.937 197.994 215.754 197.12 215.754 196.136C215.754 195.139 215.941 194.259 216.316 193.496C216.691 192.729 217.22 192.13 217.902 191.7C218.583 191.269 219.387 191.054 220.311 191.054C221.057 191.054 221.722 191.192 222.306 191.469C222.89 191.742 223.36 192.126 223.718 192.62C224.081 193.114 224.296 193.692 224.364 194.352H222.504C222.402 193.892 222.167 193.496 221.801 193.163C221.439 192.831 220.953 192.665 220.343 192.665C219.811 192.665 219.344 192.805 218.944 193.087C218.547 193.364 218.238 193.76 218.017 194.276C217.795 194.787 217.684 195.392 217.684 196.091C217.684 196.807 217.793 197.425 218.01 197.945C218.228 198.464 218.534 198.867 218.931 199.153C219.331 199.438 219.802 199.581 220.343 199.581C220.706 199.581 221.034 199.515 221.328 199.383C221.626 199.246 221.875 199.053 222.076 198.801C222.28 198.55 222.423 198.247 222.504 197.893H224.364C224.296 198.528 224.089 199.095 223.744 199.594C223.399 200.092 222.936 200.484 222.357 200.77C221.782 201.055 221.106 201.198 220.331 201.198Z" fill="#424242"/>
<path d="M211.713 201V191.182H213.624V201H211.713ZM212.678 189.667C212.345 189.667 212.06 189.556 211.821 189.335C211.587 189.109 211.47 188.84 211.47 188.529C211.47 188.214 211.587 187.945 211.821 187.724C212.06 187.498 212.345 187.385 212.678 187.385C213.01 187.385 213.294 187.498 213.528 187.724C213.767 187.945 213.886 188.214 213.886 188.529C213.886 188.84 213.767 189.109 213.528 189.335C213.294 189.556 213.01 189.667 212.678 189.667Z" fill="#424242"/>
<path d="M209.741 191.182V192.716H204.192V191.182H209.741ZM205.714 201V190.044C205.714 189.43 205.848 188.921 206.116 188.516C206.385 188.107 206.741 187.803 207.184 187.602C207.627 187.398 208.108 187.295 208.628 187.295C209.012 187.295 209.34 187.327 209.613 187.391C209.885 187.451 210.088 187.506 210.22 187.558L209.773 189.104C209.683 189.079 209.568 189.049 209.427 189.015C209.287 188.977 209.116 188.957 208.916 188.957C208.452 188.957 208.119 189.072 207.919 189.303C207.723 189.533 207.625 189.865 207.625 190.3V201H205.714Z" fill="#424242"/>
<path d="M200.586 201V191.182H202.497V201H200.586ZM201.551 189.667C201.218 189.667 200.933 189.556 200.694 189.335C200.46 189.109 200.343 188.84 200.343 188.529C200.343 188.214 200.46 187.945 200.694 187.724C200.933 187.498 201.218 187.385 201.551 187.385C201.883 187.385 202.167 187.498 202.401 187.724C202.64 187.945 202.759 188.214 202.759 188.529C202.759 188.84 202.64 189.109 202.401 189.335C202.167 189.556 201.883 189.667 201.551 189.667Z" fill="#424242"/>
<path d="M198.471 191.182V192.716H193.108V191.182H198.471ZM194.547 188.83H196.458V198.117C196.458 198.488 196.513 198.767 196.624 198.955C196.735 199.138 196.878 199.264 197.052 199.332C197.231 199.396 197.425 199.428 197.634 199.428C197.787 199.428 197.922 199.417 198.037 199.396C198.152 199.374 198.241 199.357 198.305 199.344L198.65 200.923C198.54 200.966 198.382 201.009 198.177 201.051C197.973 201.098 197.717 201.124 197.41 201.128C196.908 201.136 196.439 201.047 196.004 200.859C195.569 200.672 195.218 200.382 194.949 199.99C194.681 199.598 194.547 199.106 194.547 198.513V188.83Z" fill="#424242"/>
<path d="M187.178 201.198C186.258 201.198 185.455 200.987 184.768 200.565C184.082 200.143 183.55 199.553 183.17 198.795C182.791 198.036 182.602 197.15 182.602 196.136C182.602 195.117 182.791 194.227 183.17 193.464C183.55 192.701 184.082 192.109 184.768 191.687C185.455 191.265 186.258 191.054 187.178 191.054C188.099 191.054 188.902 191.265 189.588 191.687C190.274 192.109 190.807 192.701 191.186 193.464C191.565 194.227 191.755 195.117 191.755 196.136C191.755 197.15 191.565 198.036 191.186 198.795C190.807 199.553 190.274 200.143 189.588 200.565C188.902 200.987 188.099 201.198 187.178 201.198ZM187.185 199.594C187.781 199.594 188.276 199.436 188.668 199.121C189.06 198.805 189.349 198.386 189.537 197.862C189.729 197.337 189.825 196.76 189.825 196.129C189.825 195.503 189.729 194.928 189.537 194.403C189.349 193.875 189.06 193.451 188.668 193.131C188.276 192.812 187.781 192.652 187.185 192.652C186.584 192.652 186.085 192.812 185.689 193.131C185.297 193.451 185.005 193.875 184.813 194.403C184.626 194.928 184.532 195.503 184.532 196.129C184.532 196.76 184.626 197.337 184.813 197.862C185.005 198.386 185.297 198.805 185.689 199.121C186.085 199.436 186.584 199.594 187.185 199.594Z" fill="#424242"/>
<path d="M174.196 195.17V201H172.285V191.182H174.119V192.78H174.241C174.467 192.26 174.82 191.842 175.302 191.527C175.788 191.212 176.399 191.054 177.136 191.054C177.805 191.054 178.391 191.195 178.894 191.476C179.397 191.753 179.787 192.166 180.064 192.716C180.341 193.266 180.479 193.945 180.479 194.755V201H178.568V194.985C178.568 194.273 178.383 193.717 178.012 193.317C177.641 192.912 177.132 192.71 176.484 192.71C176.041 192.71 175.647 192.805 175.302 192.997C174.961 193.189 174.69 193.47 174.49 193.841C174.294 194.207 174.196 194.651 174.196 195.17Z" fill="#424242"/>
<path d="M238.286 178.682C238 178.682 237.74 178.658 237.506 178.612C237.272 178.569 237.097 178.522 236.982 178.471L237.442 176.905C237.792 176.999 238.103 177.039 238.375 177.026C238.648 177.013 238.889 176.911 239.098 176.719C239.311 176.528 239.498 176.214 239.66 175.78L239.897 175.128L236.304 165.182H238.35L240.836 172.801H240.939L243.425 165.182H245.477L241.431 176.31C241.243 176.822 241.005 177.254 240.715 177.608C240.425 177.966 240.08 178.234 239.679 178.413C239.279 178.592 238.814 178.682 238.286 178.682Z" fill="#424242"/>
<path d="M234.785 167.579L233.052 167.886C232.98 167.664 232.865 167.453 232.707 167.253C232.554 167.053 232.345 166.888 232.081 166.761C231.817 166.633 231.486 166.569 231.09 166.569C230.549 166.569 230.097 166.69 229.735 166.933C229.373 167.172 229.192 167.481 229.192 167.86C229.192 168.188 229.313 168.452 229.556 168.653C229.799 168.853 230.191 169.017 230.732 169.145L232.292 169.503C233.195 169.712 233.868 170.033 234.312 170.468C234.755 170.903 234.976 171.467 234.976 172.162C234.976 172.75 234.806 173.274 234.465 173.734C234.128 174.19 233.658 174.548 233.052 174.808C232.452 175.068 231.755 175.198 230.962 175.198C229.863 175.198 228.966 174.964 228.271 174.495C227.577 174.022 227.15 173.351 226.993 172.482L228.84 172.2C228.955 172.682 229.192 173.046 229.55 173.293C229.907 173.536 230.374 173.658 230.949 173.658C231.576 173.658 232.077 173.528 232.452 173.268C232.827 173.004 233.014 172.682 233.014 172.303C233.014 171.996 232.899 171.738 232.669 171.529C232.443 171.32 232.096 171.163 231.627 171.056L229.965 170.692C229.049 170.483 228.371 170.151 227.932 169.695C227.498 169.239 227.28 168.661 227.28 167.962C227.28 167.383 227.442 166.876 227.766 166.441C228.09 166.006 228.537 165.668 229.108 165.425C229.68 165.178 230.334 165.054 231.071 165.054C232.132 165.054 232.967 165.284 233.577 165.744C234.186 166.2 234.589 166.812 234.785 167.579Z" fill="#424242"/>
<path d="M222.945 175V165.182H224.856V175H222.945ZM223.91 163.667C223.578 163.667 223.292 163.556 223.054 163.335C222.819 163.109 222.702 162.84 222.702 162.529C222.702 162.214 222.819 161.945 223.054 161.724C223.292 161.498 223.578 161.385 223.91 161.385C224.243 161.385 224.526 161.498 224.76 161.724C224.999 161.945 225.118 162.214 225.118 162.529C225.118 162.84 224.999 163.109 224.76 163.335C224.526 163.556 224.243 163.667 223.91 163.667Z" fill="#424242"/>
<path d="M216.235 175.198C215.314 175.198 214.511 174.987 213.825 174.565C213.139 174.143 212.606 173.553 212.227 172.795C211.848 172.036 211.658 171.15 211.658 170.136C211.658 169.117 211.848 168.227 212.227 167.464C212.606 166.701 213.139 166.109 213.825 165.687C214.511 165.265 215.314 165.054 216.235 165.054C217.155 165.054 217.959 165.265 218.645 165.687C219.331 166.109 219.863 166.701 220.243 167.464C220.622 168.227 220.812 169.117 220.812 170.136C220.812 171.15 220.622 172.036 220.243 172.795C219.863 173.553 219.331 174.143 218.645 174.565C217.959 174.987 217.155 175.198 216.235 175.198ZM216.241 173.594C216.838 173.594 217.332 173.436 217.724 173.121C218.116 172.805 218.406 172.386 218.594 171.861C218.785 171.337 218.881 170.76 218.881 170.129C218.881 169.503 218.785 168.928 218.594 168.403C218.406 167.875 218.116 167.451 217.724 167.131C217.332 166.812 216.838 166.652 216.241 166.652C215.64 166.652 215.142 166.812 214.746 167.131C214.354 167.451 214.062 167.875 213.87 168.403C213.682 168.928 213.589 169.503 213.589 170.129C213.589 170.76 213.682 171.337 213.87 171.861C214.062 172.386 214.354 172.805 214.746 173.121C215.142 173.436 215.64 173.594 216.241 173.594Z" fill="#424242"/>
<path d="M203.253 169.17V175H201.341V165.182H203.176V166.78H203.297C203.523 166.26 203.877 165.842 204.358 165.527C204.844 165.212 205.456 165.054 206.193 165.054C206.862 165.054 207.448 165.195 207.951 165.476C208.454 165.753 208.844 166.166 209.121 166.716C209.398 167.266 209.536 167.945 209.536 168.755V175H207.625V168.985C207.625 168.273 207.439 167.717 207.069 167.317C206.698 166.912 206.189 166.71 205.541 166.71C205.098 166.71 204.704 166.805 204.358 166.997C204.018 167.189 203.747 167.47 203.547 167.841C203.351 168.207 203.253 168.651 203.253 169.17Z" fill="#424242"/>
<path d="M189.868 175.198C188.947 175.198 188.144 174.987 187.458 174.565C186.772 174.143 186.239 173.553 185.86 172.795C185.481 172.036 185.291 171.15 185.291 170.136C185.291 169.117 185.481 168.227 185.86 167.464C186.239 166.701 186.772 166.109 187.458 165.687C188.144 165.265 188.947 165.054 189.868 165.054C190.788 165.054 191.591 165.265 192.278 165.687C192.964 166.109 193.496 166.701 193.876 167.464C194.255 168.227 194.444 169.117 194.444 170.136C194.444 171.15 194.255 172.036 193.876 172.795C193.496 173.553 192.964 174.143 192.278 174.565C191.591 174.987 190.788 175.198 189.868 175.198ZM189.874 173.594C190.471 173.594 190.965 173.436 191.357 173.121C191.749 172.805 192.039 172.386 192.226 171.861C192.418 171.337 192.514 170.76 192.514 170.129C192.514 169.503 192.418 168.928 192.226 168.403C192.039 167.875 191.749 167.451 191.357 167.131C190.965 166.812 190.471 166.652 189.874 166.652C189.273 166.652 188.775 166.812 188.378 167.131C187.986 167.451 187.694 167.875 187.503 168.403C187.315 168.928 187.221 169.503 187.221 170.129C187.221 170.76 187.315 171.337 187.503 171.861C187.694 172.386 187.986 172.805 188.378 173.121C188.775 173.436 189.273 173.594 189.874 173.594Z" fill="#424242"/>
<path d="M183.004 161.909V175H181.189L174.535 165.399H174.413V175H172.438V161.909H174.266L180.927 171.523H181.048V161.909H183.004Z" fill="#424242"/>
<path d="M320 114.432C320 127.795 304 139.25 304 139.25C304 139.25 288 127.795 288 114.432C288 109.875 289.686 105.505 292.686 102.282C295.687 99.0602 299.757 97.25 304 97.25C308.243 97.25 312.313 99.0602 315.314 102.282C318.314 105.505 320 109.875 320 114.432Z" fill="#4B7CCB"/>
<path d="M304.5 121C308.09 121 311 118.09 311 114.5C311 110.91 308.09 108 304.5 108C300.91 108 298 110.91 298 114.5C298 118.09 300.91 121 304.5 121Z" fill="#FBFBFB"/>
<path fill-rule="evenodd" clip-rule="evenodd" d="M279.951 136.928L325.951 91.9277L328.049 94.0723L282.049 139.072L279.951 136.928Z" fill="#FCB94A"/>
<path d="M69.9184 54H38.4898C36.0102 54 34 56.0185 34 58.5084V74.2876C34 76.7775 36.0102 78.7959 38.4898 78.7959H69.9184C72.398 78.7959 74.4082 76.7775 74.4082 74.2876V58.5084C74.4082 56.0185 72.398 54 69.9184 54Z" fill="#FEFEFE"/>
<path fill-rule="evenodd" clip-rule="evenodd" d="M54 39.5C52.316 39.5 50.6752 40.2009 49.4459 41.4909C48.2127 42.785 47.5 44.5648 47.5 46.4444V54C47.5 55.3807 46.3807 56.5 45 56.5C43.6193 56.5 42.5 55.3807 42.5 54V46.4444C42.5 43.3144 43.6838 40.2898 45.8262 38.0415C47.9725 35.7892 50.9101 34.5 54 34.5C57.0899 34.5 60.0275 35.7892 62.1738 38.0415C64.3162 40.2898 65.5 43.3144 65.5 46.4444V54C65.5 55.3807 64.3807 56.5 63 56.5C61.6193 56.5 60.5 55.3807 60.5 54V46.4444C60.5 44.5648 59.7873 42.785 58.5541 41.4909C57.3248 40.2009 55.684 39.5 54 39.5Z" fill="#FEFEFE"/>
<path d="M54.0569 67.2013C55.7451 67.2013 57.1137 65.8131 57.1137 64.1006C57.1137 62.3882 55.7451 61 54.0569 61C52.3686 61 51.0001 62.3882 51.0001 64.1006C51.0001 65.8131 52.3686 67.2013 54.0569 67.2013Z" fill="#F1B357"/>
<path fill-rule="evenodd" clip-rule="evenodd" d="M55.4071 66.6632V70.6199C55.4071 71.3815 54.7973 72 54.0468 72C53.2964 72 52.6866 71.3815 52.6866 70.6199V66.6632C52.6866 65.9016 53.2964 65.2831 54.0468 65.2831C54.7973 65.2831 55.4071 65.9016 55.4071 66.6632Z" fill="#F1B357"/>
<path d="M131 176.16C131 172.935 129.736 169.842 127.485 167.562C125.235 165.281 122.183 164 119 164C115.817 164 112.765 165.281 110.515 167.562C108.264 169.842 107 172.935 107 176.16C107 190.347 101 194.4 101 194.4H137C137 194.4 131 190.347 131 176.16Z" fill="#FBFBFB"/>
<path fill-rule="evenodd" clip-rule="evenodd" d="M94.9511 202.928L140.951 157.928L143.049 160.072L97.0489 205.072L94.9511 202.928Z" fill="#FCB94A"/>
<path d="M123 196.5C123 197.693 122.526 198.838 121.682 199.682C120.838 200.526 119.693 201 118.5 201C117.307 201 116.162 200.526 115.318 199.682C114.474 198.838 114 197.693 114 196.5H123Z" fill="#FBFBFB"/>
</svg>
