<svg width="261" height="297" viewBox="0 0 261 297" fill="none" xmlns="http://www.w3.org/2000/svg">
<path d="M254.069 209.423C254.069 211.313 255.613 212.845 257.519 212.845C259.424 212.845 260.969 211.313 260.969 209.423C260.969 207.533 259.424 206 257.519 206C255.613 206 254.069 207.533 254.069 209.423Z" fill="#F1B357"/>
<path d="M227.221 209.423C227.221 211.313 228.766 212.845 230.671 212.845C232.577 212.845 234.122 211.313 234.122 209.423C234.122 207.533 232.577 206 230.671 206C228.766 206 227.221 207.533 227.221 209.423Z" fill="#F1B357"/>
<path d="M200.152 237.384C200.152 239.274 201.696 240.806 203.602 240.806C205.507 240.806 207.052 239.274 207.052 237.384C207.052 235.494 205.507 233.961 203.602 233.961C201.696 233.961 200.152 235.494 200.152 237.384Z" fill="#F1B357"/>
<path d="M254.069 237.384C254.069 239.274 255.613 240.806 257.519 240.806C259.424 240.806 260.969 239.274 260.969 237.384C260.969 235.494 259.424 233.961 257.519 233.961C255.613 233.961 254.069 235.494 254.069 237.384Z" fill="#F1B357"/>
<path d="M227.221 237.384C227.221 239.274 228.766 240.806 230.671 240.806C232.577 240.806 234.122 239.274 234.122 237.384C234.122 235.494 232.577 233.961 230.671 233.961C228.766 233.961 227.221 235.494 227.221 237.384Z" fill="#F1B357"/>
<path d="M200.152 264.936C200.152 266.826 201.696 268.357 203.602 268.357C205.507 268.357 207.052 266.826 207.052 264.936C207.052 263.045 205.507 261.512 203.602 261.512C201.696 261.512 200.152 263.045 200.152 264.936Z" fill="#F1B357"/>
<path d="M173 264.936C173 266.826 174.545 268.357 176.45 268.357C178.355 268.357 179.9 266.826 179.9 264.936C179.9 263.045 178.355 261.512 176.45 261.512C174.545 261.512 173 263.045 173 264.936Z" fill="#F1B357"/>
<path d="M254.069 264.936C254.069 266.826 255.613 268.357 257.519 268.357C259.424 268.357 260.969 266.826 260.969 264.936C260.969 263.045 259.424 261.512 257.519 261.512C255.613 261.512 254.069 263.045 254.069 264.936Z" fill="#F1B357"/>
<path d="M227.221 264.936C227.221 266.826 228.766 268.357 230.671 268.357C232.577 268.357 234.122 266.826 234.122 264.936C234.122 263.045 232.577 261.512 230.671 261.512C228.766 261.512 227.221 263.045 227.221 264.936Z" fill="#F1B357"/>
<path d="M200.152 293.304C200.152 295.194 201.696 296.725 203.602 296.725C205.507 296.725 207.052 295.194 207.052 293.304C207.052 291.413 205.507 289.88 203.602 289.88C201.696 289.88 200.152 291.413 200.152 293.304Z" fill="#F1B357"/>
<path d="M173 293.304C173 295.194 174.545 296.725 176.45 296.725C178.355 296.725 179.9 295.194 179.9 293.304C179.9 291.413 178.355 289.88 176.45 289.88C174.545 289.88 173 291.413 173 293.304Z" fill="#F1B357"/>
<path d="M226.814 293.304C226.814 295.194 228.359 296.725 230.264 296.725C232.169 296.725 233.714 295.194 233.714 293.304C233.714 291.413 232.169 289.88 230.264 289.88C228.359 289.88 226.814 291.413 226.814 293.304Z" fill="#F1B357"/>
<g filter="url(#filter0_d_728_43)">
<rect x="8" y="16" width="209" height="265" rx="10" fill="white"/>
<rect x="8.5" y="16.5" width="208" height="264" rx="9.5" stroke="#ECECEC"/>
</g>
<path fill-rule="evenodd" clip-rule="evenodd" d="M115.96 62.4577C121.627 69.7309 126.393 77.8974 130 86.7018V40H89.9404C99.4723 45.2316 108.36 52.7601 115.96 62.4577ZM58.2535 44.9764C50.7825 44.9764 43.6981 46.5076 37 49.4424V132H125.878C125.105 83.8946 95.0928 44.9764 58.2535 44.9764Z" fill="#387ED1"/>
<rect width="151" height="15" rx="2" transform="matrix(-1 0 0 1 188 190)" fill="#F0F0F0"/>
<rect width="203" height="15" rx="2" transform="matrix(-1 0 0 1 240 230)" fill="#F0F0F0"/>
<rect width="88" height="171" fill="#B6D9FF" fill-opacity="0.42"/>
<defs>
<filter id="filter0_d_728_43" x="2" y="10" width="229" height="285" filterUnits="userSpaceOnUse" color-interpolation-filters="sRGB">
<feFlood flood-opacity="0" result="BackgroundImageFix"/>
<feColorMatrix in="SourceAlpha" type="matrix" values="0 0 0 0 0 0 0 0 0 0 0 0 0 0 0 0 0 0 127 0" result="hardAlpha"/>
<feOffset dx="4" dy="4"/>
<feGaussianBlur stdDeviation="5"/>
<feComposite in2="hardAlpha" operator="out"/>
<feColorMatrix type="matrix" values="0 0 0 0 0.690576 0 0 0 0 0.690576 0 0 0 0 0.690576 0 0 0 0.15 0"/>
<feBlend mode="normal" in2="BackgroundImageFix" result="effect1_dropShadow_728_43"/>
<feBlend mode="normal" in="SourceGraphic" in2="effect1_dropShadow_728_43" result="shape"/>
</filter>
</defs>
</svg>
